<svg xmlns="http://www.w3.org/2000/svg" viewBox="-32.77 -37.14 284.03 284.03"><g transform="translate(-18.408128,237.867827) scale(0.100000,-0.100000)" stroke="none"><path d="M991 2364 c-128 -20 -376 -84 -497 -129 -203 -76 -284 -146 -285 -248 -2 -80 30 -121 133 -172 78 -39 98 -66 107 -146 10 -82 -4 -609 -19 -713 -17 -120 -33 -149 -111 -212 -113 -90 -149 -158 -130 -245 26 -114 135 -172 385 -205 162 -21 701 -15 845 10 145 25 222 68 260 145 66 132 9 237 -159 295 -161 56 -165 70 -165 521 0 287 2 323 18 352 36 66 93 57 185 -30 126 -118 207 -157 323 -157 225 0 415 151 474 375 56 217 -61 471 -252 546 -83 33 -252 33 -335 0 -80 -31 -169 -99 -219 -168 -65 -88 -101 -123 -125 -123 -37 0 -60 41 -72 132 -19 134 -28 158 -67 174 -43 18 -169 17 -294 -2z"/></g></svg>
