<svg id="Layer_1" enable-background="new 0 0 3000 3000" height="512" viewBox="0 0 3000 3000" width="512" xmlns="http://www.w3.org/2000/svg"><g transform="translate(-2248 -562)"><g id="Icons"><path clip-rule="evenodd" d="m4204.328 1592.26c35.457-429.626 235.876-703.918 401.875-820.483 179.185-128.226 356.245-12.881 453.522 167.816 121.408 221.573 126.157 548.067 11.826 555.874-141.208 11.398-303.423-203.941-356.403-313.818-23.291-37.691-28.729-82.097-53.715-117.726-24.772-18.364-54.939 7.147-46.54 32.985-138.75 123.849-230.741 285.615-274.043 486.744-2.578 11.918 2.345 24.199 12.423 31.049s23.32 6.902 33.457.129c127.559-85.266 239.122-188.226 327.421-316.676 21.505 32.373 44.708 62.771 68.848 90.498-94.159 146.889-264.022 263.508-446.074 314.731 159.727 160.998 271.583 386.15 306.797 641.531 447.211 151.208 392.432 778.531-68.614 854.039 23.028 73.301 52.384 143.321 87.129 208.653h-1841.835c34.804-65.332 64.16-137.461 87.188-210.762-457.247-91.079-490.134-707.263-55.138-851.93 35.215-255.434 146.954-480.58 306.622-641.531-182.051-51.223-351.915-167.842-446.073-314.731 24.14-27.727 47.343-58.125 68.848-90.498 88.3 128.449 199.862 231.41 327.421 316.676 10.136 6.773 23.379 6.721 33.457-.129s15-19.131 12.423-31.049c-43.302-201.129-135.293-362.895-274.043-486.744 5.603-52.942-56.558-54.698-66.731 9.013-63.999 174.574-229.44 372.318-364.352 389.812-117.156 16.028-111.971-171.776-104.844-253.939 11.324-103.292 35.87-189.216 79.388-279.577 97.322-198.453 282.483-323.029 467.523-188.877 259.1 192.916 374.534 521.913 399.584 818.908 106.758-73.506 227.401-122.021 356.132-138.738-25.957-50.865-35.683-87.018-84.316-120.416 50.274-21.445 94.57-13.025 136.348 8.022 4.101-67.324-3.106-130.869-15.996-192.533 96.328 76.037 159.023 180.434 161.894 304.611 129.234 16.311 251.348 65.155 358.591 139.066zm-13.476 1154.367c201.827 113.041 231.119 152.265 248.803 96.656 1.85-31.742-28.325-33.516-53.657-51.649-47.161-27.225-123.524-71.313-153.391-88.556-48.591-34.997-74.066 24.587-41.755 43.549zm-915.001-50.742c-210.438 124.447-234.756 120.394-214.515 160.451 25.725 29.817 48.442-.209 67.387-7.844 27.309-15.77 69.386-40.064 105.71-61.037 44.637-26.07 66.416-37.708 74.635-43.535 28.661-25.147-3.953-64.605-33.217-48.035zm501.446-163.125c63.375-53.455 99.437-110.05 113.987-164.207 3.603-16.88 15.319-44.945-7.562-59.335-50.641-19.687-99.318-25.505-150.091-24.388-46.577 2.232-142.49 12.952-146.825 39.842-8.003 65.036 65.131 153.327 131.898 208.153-.036-.013.026 66.91 0 98.848 7.481 110.83-85.718 197.011-196.571 175.052-109.037-23.753-158.731-144.609-107.823-236.882 9.885-17.312-1.517-41.159-22.563-43.305-46.38-6.108-59.029 109.756-55.718 135.137 18.821 225.041 303.838 280.884 411.972 96.354 109.518 182.608 376.131 127.548 409.891-76.671 10.942-52.913-13.897-151.686-44.61-154.366-29.025-5.068-44.369 26.07-28.925 47.877 36.195 70.974 13.92 153.531-42.594 199.222-130.338 97.152-278.104-14.397-264.462-146.305-.004-33.163-.004-94.9-.004-95.026zm-486.797 64.793h-157.617c-16.172 0-29.297 13.131-29.297 29.297 0 16.172 13.125 29.297 29.297 29.297h157.617c16.172 0 29.297-13.125 29.297-29.297-.001-16.166-13.126-29.297-29.297-29.297zm915 58.593h157.617c16.172 0 29.297-13.125 29.297-29.297 0-16.166-13.125-29.297-29.297-29.297h-157.617c-16.172 0-29.297 13.131-29.297 29.297.001 16.172 13.126 29.297 29.297 29.297zm14.649-98.332c208.272-123.384 237.654-121.045 213.092-162.342-26.315-26.621-47.097 2.294-67.079 10.383-28.83 16.647-73.354 42.353-110.422 63.754-41.811 24.434-60.516 34.304-68.81 40.169-28.659 25.148 3.955 64.606 33.219 48.036zm-915.001-50.742c-201.844-113.045-231.125-152.26-248.803-96.653-1.85 31.738 28.325 33.514 53.657 51.647 47.161 27.225 123.524 71.313 153.391 88.556 48.591 34.997 74.066-24.587 41.755-43.55zm442.852-163.898c-31.055.035-65.859 3.967-98.555 11.76 14.298 41.871 49.511 84.03 98.379 125.848 47.168-41.766 74.707-84.17 86.485-126.023-28.887-7.636-55.782-11.55-86.309-11.585zm-485.742-353.274c-69.442 58.503-58.112 162.311 12.783 207.724 80.522 50.826 181.646 1.223 196.573-86.88 74.297 56.847 100.627-20.485 45.582-41.333-74.413-42.941-59.781-34.496-140.196-80.938-37.523-21.732-72.679-41.949-117.287-67.696-30.247-16.687-59.106 21.594-35.096 46.405 3.43 4.209 33.88 20.061 37.641 22.718zm898.359-25.464c-50.743 29.239-144.586 83.56-196.602 113.51-30.222 18.897-9.48 62.08 22.74 53.545 5.493-.974 33.047-18.576 37.632-20.746 14.531 84.379 104.709 130.245 180.852 95.487 88.466-41.056 99.54-157.854 28.504-216.33 89.788-39.814 27.947-86.711 2.697-69.212.051-.017-75.752 43.694-75.823 43.746zm-840.645 58.769c-57.417 22.543-59.697 96.686-12.185 125.798 53.098 31.836 115.75-13.698 106.052-71.593zm856.056 0-93.867 54.205c-9.21 56.767 48.176 98.123 98.203 75.756 59.415-27.764 51.939-109.026-4.336-129.961zm-1317.775-866.045c-12.421 29.063-26.542 57.451-41.953 84.82 71.075 109.359 159.433 199.693 260.332 276.199-43.3-144.24-116.249-264.427-218.379-361.019zm1779.494 0c12.421 29.068 26.542 57.451 41.953 84.82-71.075 109.359-159.433 199.693-260.332 276.199 43.3-144.245 116.249-264.427 218.379-361.019zm-803.145 294.586 11.132 1.447c-3.691-.48-7.383-.961-11.132-1.447z" fill-rule="evenodd"/></g></g></svg>