<svg id="Layer_1" enable-background="new 0 0 3000 3000" height="512" viewBox="0 0 3000 3000" width="512" xmlns="http://www.w3.org/2000/svg"><g transform="translate(-1686 -2248)"><g id="Icons"><path clip-rule="evenodd" d="m3642.328 3278.254c35.436-429.469 235.742-703.793 401.875-820.464 179.188-128.235 356.24-12.934 453.522 167.798 121.525 221.874 126.049 548.145 11.826 555.875-141.28 11.367-303.385-203.896-356.403-313.829-23.291-37.685-28.73-82.088-53.715-117.715-24.798-18.395-54.929 7.191-46.539 32.983-138.75 123.866-230.741 285.645-274.042 486.739-2.578 11.952 2.343 24.198 12.422 31.053 10.078 6.856 23.32 6.915 33.457.117 127.559-85.254 239.122-188.202 327.421-316.641 21.505 32.344 44.708 62.755 68.848 90.47-94.159 146.894-264.022 263.496-446.074 314.765 159.727 160.957 271.583 386.132 306.798 641.484 447.192 151.254 392.458 778.531-68.615 854.062 23.028 73.301 52.384 143.32 87.129 208.652h-1841.836c34.805-65.332 64.102-137.461 87.188-210.762-457.225-91.066-490.156-707.215-55.136-851.952 35.215-255.411 147.011-480.586 306.621-641.484-182.051-51.27-351.914-167.872-446.074-314.765 24.141-27.715 47.344-58.126 68.848-90.47 69.7 101.414 154.696 187.736 250.13 261.202 208.327 176.054 94.563-85.763 55.21-182.872-49.838-108.543-118.638-201.488-206.083-279.599 5.574-52.963-56.543-54.689-66.732 9.008-64.188 174.898-229.53 372.359-364.351 389.812-117.151 16.066-111.973-171.779-104.845-253.944 11.324-103.269 35.87-189.187 79.388-279.564 97.327-198.492 282.478-323.023 467.523-188.862 259.109 192.922 374.544 521.897 399.584 818.901 106.758-73.535 227.403-122.051 356.133-138.751-25.958-50.859-35.684-87.011-84.317-120.409 50.273-21.446 94.571-13.009 136.406 8.027 4.043-67.324-3.164-130.899-16.055-192.538 96.328 76.054 159.023 180.409 161.895 304.629 129.242 16.232 251.351 65.188 358.593 139.044zm-15.586 1154.356c210.957 118.68 223.719 145.327 247.142 103.389 9.95-36.089-25.531-39.633-42.533-52.905-28.832-16.646-73.356-42.355-110.424-63.759-42.065-23.995-59.967-35.261-69.192-39.511-36.108-12.244-53.974 35.724-24.993 52.786zm-910.781-50.743c-208.344 123.436-237.674 121.097-213.138 162.36 26.366 26.616 47.122-2.28 67.125-10.385 28.83-16.649 73.354-42.359 110.422-63.763 41.81-24.437 60.516-34.31 68.809-40.175 28.659-25.15-3.955-64.605-33.218-48.037zm470.098-411.269c-44.736.59-162.281 10.207-162.4 44.445 1.05 69.644 61.546 143.545 133.045 203.759v161.483h-220.84c-16.172 0-29.297 13.125-29.297 29.297s13.125 29.297 29.297 29.297h511.347c16.172 0 29.297-13.125 29.297-29.297s-13.125-29.297-29.297-29.297h-231.914v-161.542c75.82-63.985 111.387-130.723 120.234-194.474 1.933-14.121-6.562-27.597-20.156-31.933-45.41-14.473-83.906-21.738-129.316-21.738zm-455.449 312.948h-157.676c-16.172 0-29.297 13.125-29.297 29.297s13.125 29.297 29.297 29.297h157.676c16.172 0 29.297-13.125 29.297-29.297s-13.126-29.297-29.297-29.297zm910.78 58.594h157.676c16.171 0 29.296-13.125 29.296-29.297s-13.125-29.297-29.296-29.297h-157.676c-16.113 0-29.297 13.125-29.297 29.297s13.184 29.297 29.297 29.297zm14.649-98.319c205.996-122.201 240.63-121.903 211.567-164.106-26.592-23.377-45.585 4.066-66.684 12.784-31.133 17.98-79.735 46.044-117.794 68.02-37.765 22.101-51.604 29.165-60.307 35.266-28.659 25.147 3.954 64.604 33.218 48.036zm-910.781-50.743c-210.9-118.643-223.696-145.33-247.185-103.39-9.849 36.123 25.544 39.611 42.576 52.904 28.832 16.646 73.356 42.355 110.424 63.76 42.065 23.995 59.967 35.261 69.192 39.511 36.108 12.245 53.974-35.724 24.993-52.785zm440.742-163.887c-31.055 0-65.859 3.925-98.554 11.719 14.297 41.894 49.511 84.083 98.378 125.859 47.168-41.777 74.707-84.14 86.485-126.035-28.887-7.617-55.782-11.543-86.309-11.543zm-561.094-205.136c-15.366 182.305 249.624 176.853 232.09 0 71.583-1.76 138.329 6.7 145.025-10.977 32.922-68.36-68.587-43.191-144.262-47.618-140.165.001-351.696.001-354.985.001-35.345.764-40.506 50.925-4.564 58.246 2.213.344 5.255.333 4.655.348 4.395-.001 121.956 0 122.041 0zm890.098 0c-15.427 182.021 249.382 177.147 232.148 0 89.273-1.59 138.027 6.815 146.249-12.699 28.617-67.034-70.826-41.121-148.716-45.897-139.104.002-345.391.002-351.707.002-33.519-.042-42.444 49.624-4.671 58.246 2.213.344 5.255.332 4.655.348 4.396-.001 121.956 0 122.042 0zm-718.067 0h-112.031c-21.81 104.28 135.764 98.98 112.031 0zm890.157 0h-112.031c-22.01 104.078 135.571 99.185 112.031 0zm-162.774-266.485c-52.49-87.044-44.006-107.323-113.351-63.385-32.07 19.035-49.6 27.42-58.431 34.711-19.981 18.949-4.462 49.818 19.409 50.398 12.793 2.646 64.152-33.803 75.146-38.306 5.494 8.992 23.844 42.423 29.19 49.8 25.109 28.656 64.617-3.942 48.037-33.218zm73.301-42.304-26.484-45.938c.01-.016 57.581-33.228 59.542-34.366 29.253-18.105 10.897-59.953-20.487-54.104-5.842-.571-76.101 43.125-92.542 51.694-42.333 21.227 16.852 81.992 29.226 112.014 22.477 33.908 68.395 3.021 50.745-29.3zm-239.707-128.731 26.485 45.878c-.01.016-57.582 33.229-59.543 34.368-29.149 18.104-10.852 59.944 20.515 54.104 5.759.585 76.109-43.14 92.513-51.693 42.382-21.156-16.865-81.981-29.226-111.955-22.474-33.911-68.394-3.022-50.744 29.298zm73.301-42.304c52.599 87.125 44.105 107.292 113.387 63.385 32.052-19.037 49.563-27.422 58.395-34.712 19.982-18.948 4.463-49.818-19.409-50.398-12.798-2.648-64.094 33.797-75.087 38.305-5.501-8.988-23.907-42.425-29.25-49.799-25.106-28.656-64.616 3.943-48.036 33.219zm-1134.961-501.094c-12.422 29.062-26.543 57.479-41.953 84.844 71.074 109.335 159.433 199.687 260.332 276.21-43.301-144.257-116.25-264.433-218.379-361.054zm1779.493 0c12.421 29.062 26.542 57.479 41.953 84.844-71.075 109.335-159.433 199.687-260.332 276.21 43.3-144.257 116.249-264.433 218.379-361.054z" fill-rule="evenodd"/></g></g></svg>