<svg id="Layer_1" enable-background="new 0 0 3000 3000" height="512" viewBox="0 0 3000 3000" width="512" xmlns="http://www.w3.org/2000/svg"><g transform="translate(-1686 -562)"><g id="Icons"><path clip-rule="evenodd" d="m3642.328 1592.26c35.453-429.625 235.882-703.923 401.875-820.483 179.184-128.226 356.244-12.881 453.522 167.816 121.408 221.573 126.157 548.067 11.826 555.874-141.208 11.398-303.423-203.941-356.403-313.818-23.291-37.691-28.729-82.097-53.715-117.726-24.772-18.364-54.939 7.147-46.539 32.985-138.75 123.849-230.741 285.615-274.042 486.744-2.578 11.918 2.343 24.199 12.422 31.049 10.078 6.85 23.32 6.902 33.457.129 127.559-85.266 239.122-188.226 327.421-316.676 21.505 32.373 44.708 62.771 68.848 90.498-94.159 146.889-264.022 263.508-446.074 314.731 159.727 160.998 271.583 386.15 306.798 641.531 447.211 151.208 392.432 778.531-68.615 854.039 23.028 73.301 52.384 143.321 87.129 208.653h-1841.836c34.805-65.332 64.102-137.461 87.188-210.762-457.247-91.079-490.132-707.264-55.136-851.93 35.215-255.434 147.011-480.58 306.621-641.531-182.051-51.223-351.914-167.842-446.074-314.731 24.141-27.727 47.344-58.125 68.848-90.498 88.301 128.449 199.863 231.41 327.422 316.676 10.136 6.773 23.379 6.721 33.457-.129 10.079-6.85 15-19.131 12.422-31.049-43.3-201.129-135.293-362.895-274.042-486.744 5.604-52.938-56.556-54.702-66.732 9.013-64.427 175.456-229.895 372.417-364.351 389.812-117.156 16.028-111.971-171.776-104.845-253.939 11.324-103.292 35.87-189.216 79.388-279.577 97.322-198.452 282.483-323.029 467.523-188.877 259.098 192.915 374.538 521.915 399.584 818.908 106.758-73.506 227.403-122.021 356.133-138.738-25.958-50.865-35.684-87.018-84.317-120.416 50.273-21.445 94.571-13.025 136.406 8.022 4.043-67.324-3.164-130.869-16.055-192.533 96.328 76.037 159.023 180.434 161.895 304.611 129.234 16.312 251.349 65.155 358.591 139.066zm-13.477 1154.367c201.828 113.041 231.12 152.265 248.803 96.656 1.85-31.742-28.325-33.516-53.657-51.649-47.161-27.225-123.524-71.313-153.391-88.556-48.589-34.997-74.065 24.586-41.755 43.549zm-914.999-50.742c-202.399 120.227-243.995 122.917-209.878 165.689 26.817 20.604 45.12-6.525 73.329-19.189 43.851-25.322 112.936-65.209 146.45-84.559 67.774-30.128 19.278-80.224-9.901-61.941zm501.445-163.125c63.375-53.455 99.437-110.05 114.022-164.207 3.643-16.896 15.305-44.931-7.597-59.335-50.629-19.679-99.269-25.502-150.049-24.388-46.63 2.233-142.527 12.95-146.867 39.842-8.005 65.034 65.132 153.329 131.897 208.153-.036-.012.026 66.91 0 98.848 7.482 110.83-85.719 197.011-196.57 175.052-109.404-23.96-158.59-144.801-107.824-236.882 9.881-17.309-1.5-41.161-22.588-43.305-46.335-6.113-59.012 109.758-55.694 135.137 18.822 225.042 303.84 280.884 411.973 96.354 107.756 179.882 369.437 129.661 408.73-69.735 14.045-61.448-14.228-156.692-41.268-160.762-29.733-7.477-47.167 24.685-31.107 47.337 36.196 70.974 13.92 153.531-42.594 199.222-130.338 97.152-278.104-14.397-264.462-146.305-.002-33.163-.002-94.9-.002-95.026zm428.203 123.386h157.617c16.172 0 29.297-13.125 29.297-29.297 0-16.166-13.125-29.297-29.297-29.297h-157.617c-16.172 0-29.297 13.131-29.297 29.297 0 16.172 13.125 29.297 29.297 29.297zm-915-58.593h-157.617c-16.172 0-29.297 13.131-29.297 29.297 0 16.172 13.125 29.297 29.297 29.297h157.617c16.172 0 29.297-13.125 29.297-29.297 0-16.166-13.125-29.297-29.297-29.297zm14.649-90.481c-201.837-113.041-231.128-152.262-248.804-96.653-1.85 31.738 28.325 33.514 53.658 51.647 47.161 27.225 123.524 71.313 153.391 88.556 48.589 34.996 74.065-24.587 41.755-43.55zm914.999 50.742c198.815-118.272 247.429-124.029 208.105-167.141-26.56-17.471-43.185 7.774-71.555 20.646-47.159 27.23-123.521 71.317-153.388 88.561-54.604 24.582-15.737 76.437 16.838 57.934zm-472.148-214.64c-31.055.035-65.859 3.967-98.554 11.76 14.297 41.871 49.511 84.03 98.378 125.848 47.168-41.766 74.707-84.17 86.485-126.023-28.887-7.636-55.782-11.55-86.309-11.585zm-499.512-262.037c-15.366 182.316 249.634 176.931 232.148 0h534.727c-15.369 182.249 249.648 176.99 232.148 0 18.469-2.914 94.134 10.373 101.375-16.418 13.109-41.323-29.607-43.35-28.431-42.175-1.038.003-1.746-.004-3.255-.001-44.687 0-358.474 0-646.559 0-526.893 3.992-532.486-18.56-524.414 40.192 8.136 31.223 80.807 14.485 102.261 18.402zm938.965 0h-112.031c-21.995 104.225 135.793 99.105 112.031 0zm-766.875 0h-112.031c-22.04 104.193 135.753 99.137 112.031 0zm135.234-115.301h384.375c16.172 0 29.297-13.125 29.297-29.297s-13.125-29.297-29.297-29.297h-384.375c-16.172 0-29.297 13.125-29.297 29.297s13.125 29.297 29.297 29.297zm-697.558-808.676c-12.422 29.063-26.543 57.451-41.953 84.82 71.074 109.359 159.433 199.693 260.332 276.199-43.301-144.24-116.25-264.427-218.379-361.019zm1779.493 0c12.421 29.068 26.542 57.451 41.953 84.82-71.075 109.359-159.433 199.693-260.332 276.199 43.3-144.245 116.249-264.427 218.379-361.019zm-803.087 294.586 11.074 1.447c-3.691-.48-7.382-.961-11.074-1.447z" fill-rule="evenodd"/></g></g></svg>