<svg id="Layer_1" enable-background="new 0 0 3000 3000" height="512" viewBox="0 0 3000 3000" width="512" xmlns="http://www.w3.org/2000/svg"><g transform="translate(-1686 -1686)"><g id="Icons"><path clip-rule="evenodd" d="m3642.328 2716.254c35.436-429.469 235.742-703.792 401.875-820.464 179.187-128.234 356.24-12.934 453.522 167.797 121.442 221.665 126.124 548.115 11.826 555.875-141.284 11.364-303.383-203.893-356.403-313.828-23.291-37.686-28.73-82.088-53.715-117.715-24.784-18.377-54.935 7.145-46.539 32.983-138.75 123.867-230.741 285.645-274.042 486.738-2.578 11.953 2.343 24.199 12.422 31.055 10.078 6.855 23.32 6.914 33.457.117 127.559-85.254 239.122-188.203 327.421-316.641 21.505 32.344 44.708 62.754 68.848 90.469-94.159 146.895-264.022 263.497-446.074 314.766 159.727 160.957 271.583 386.132 306.798 641.484 447.192 151.254 392.458 778.531-68.615 854.062 23.028 73.301 52.384 143.32 87.129 208.652h-1841.836c34.805-65.332 64.102-137.461 87.188-210.762-457.225-91.066-490.156-707.215-55.136-851.952 35.215-255.411 147.011-480.528 306.621-641.484-182.051-51.27-351.914-167.871-446.074-314.766 24.141-27.715 47.344-58.125 68.848-90.469 69.7 101.413 154.696 187.736 250.13 261.201 208.327 176.053 94.563-85.764 55.21-182.872-49.838-108.543-118.638-201.488-206.083-279.599 5.6-52.949-56.543-54.702-66.732 9.008-64.19 174.9-229.527 372.357-364.351 389.812-117.144 16.067-111.974-171.757-104.845-253.925 11.325-103.312 35.869-189.197 79.388-279.583 97.326-198.492 282.478-323.021 467.523-188.861 259.109 192.922 374.544 521.896 399.584 818.901 106.758-73.535 227.403-122.051 356.133-138.75-25.958-50.86-35.684-87.012-84.317-120.411 50.273-21.445 94.571-13.008 136.406 8.027 4.043-67.324-3.164-130.898-16.055-192.539 96.328 76.054 159.023 180.41 161.895 304.629 129.241 16.236 251.351 65.188 358.593 139.045zm-456.269 692.344c-44.773.661-162.263 10.177-162.4 44.445 1.05 69.644 61.546 143.545 133.045 203.758v149.122h-239.824c-53.613 0-97.09 43.476-97.09 97.09v135.585c0 53.613 43.477 97.09 97.09 97.09h538.243c53.613 0 97.148-43.478 97.148-97.09v-135.585c0-53.614-43.535-97.09-97.148-97.09h-239.824v-149.18c75.82-63.984 111.387-130.722 120.234-194.472 1.933-14.121-6.562-27.598-20.156-31.934-45.412-14.474-83.908-21.681-129.318-21.739zm-269.18 455.918c.048.039 139.85-.028 277.194 0 356.833 7.417 293.3-48.546 299.604 174.081-4.78 56.976-69.404 33.96-116.682 38.5-144.39-.003-439.684-.003-459.124-.003-49.604-5.832-38.122-36.294-39.489-108.852 1.834-59.484-11.641-97.638 38.497-103.726zm-200.918-44.649c-208.344 123.436-237.674 121.097-213.138 162.36 26.366 26.616 47.122-2.28 67.125-10.385 28.83-16.65 73.354-42.359 110.422-63.763 41.81-24.437 60.516-34.31 68.809-40.175 28.659-25.15-3.955-64.604-33.218-48.037zm910.781 50.743c210.957 118.68 223.719 145.327 247.142 103.389 9.95-36.089-25.531-39.633-42.533-52.905-28.832-16.646-73.356-42.355-110.424-63.759-42.065-23.995-59.967-35.261-69.192-39.511-36.108-12.245-53.974 35.724-24.993 52.786zm-896.132-149.063h-157.676c-16.172 0-29.297 13.125-29.297 29.297s13.125 29.297 29.297 29.297h157.676c16.172 0 29.297-13.125 29.297-29.297-.001-16.172-13.126-29.297-29.297-29.297zm910.78 58.594h157.676c16.171 0 29.296-13.125 29.296-29.297s-13.125-29.297-29.296-29.297h-157.676c-16.113 0-29.297 13.125-29.297 29.297.001 16.172 13.184 29.297 29.297 29.297zm14.649-98.321c205.993-122.198 240.63-121.902 211.567-164.106-26.592-23.377-45.585 4.067-66.684 12.785-31.133 17.98-79.735 46.044-117.794 68.021-37.765 22.101-51.604 29.165-60.307 35.265-28.659 25.147 3.954 64.605 33.218 48.035zm-910.781-50.742c-210.899-118.643-223.696-145.33-247.185-103.39-9.848 36.125 25.544 39.612 42.576 52.905 28.832 16.646 73.356 42.355 110.424 63.759 42.065 23.995 59.967 35.261 69.192 39.511 36.108 12.247 53.974-35.725 24.993-52.785zm440.742-163.887c-31.055 0-65.859 3.926-98.554 11.719 14.297 41.895 49.511 84.082 98.378 125.859 47.168-41.777 74.707-84.14 86.485-126.035-28.887-7.617-55.782-11.543-86.309-11.543zm450-232.148c-7.273-2.209-153.767-83.673-158.18-78.346-31.466.423-38.639 39.831-15.587 54.127 3.458 2.755 107.097 55.137 110.134 57.208l-108.047 56.016c-14.355 7.441-19.981 25.136-12.539 39.492 7.441 14.355 25.137 19.98 39.492 12.539l144.727-75.059c7.273 2.209 153.766 83.673 158.18 78.346 31.466-.423 38.64-39.831 15.587-54.127-3.458-2.755-107.097-55.137-110.134-57.208l108.047-56.016c14.355-7.441 19.98-25.136 12.539-39.492-7.442-14.355-25.137-19.98-39.492-12.539zm-900 65.977c7.273 2.209 153.767 83.673 158.18 78.346 31.466-.423 38.639-39.831 15.587-54.127-3.458-2.755-107.097-55.137-110.134-57.208l108.047-56.016c14.355-7.441 19.981-25.136 12.539-39.492-7.441-14.355-25.137-19.98-39.492-12.539l-144.727 75.059c-7.273-2.209-153.766-83.673-158.18-78.346-31.466.423-38.64 39.832-15.587 54.127 3.459 2.755 107.097 55.137 110.134 57.208l-108.046 56.016c-14.356 7.441-19.981 25.136-12.539 39.492 7.442 14.355 25.137 19.98 39.492 12.539zm-439.746-1019.884c-12.422 29.063-26.543 57.481-41.953 84.844 71.074 109.335 159.433 199.687 260.332 276.21-43.301-144.257-116.25-264.432-218.379-361.054zm1779.493 0c12.421 29.122 26.542 57.481 41.953 84.844-71.075 109.335-159.433 199.687-260.332 276.21 43.3-144.257 116.249-264.432 218.379-361.054zm-803.087 294.61 11.074 1.465c-3.691-.469-7.382-.996-11.074-1.465z" fill-rule="evenodd"/></g></g></svg>