<svg id="Layer_1" enable-background="new 0 0 3000 3000" height="512" viewBox="0 0 3000 3000" width="512" xmlns="http://www.w3.org/2000/svg"><g transform="translate(0 -562)"><g id="Icons"><path clip-rule="evenodd" d="m1956.34 1592.26c35.405-429.36 235.724-703.81 401.863-820.483 179.193-128.227 356.251-12.891 453.52 167.816 121.422 221.578 126.121 548.075 11.832 555.874-141.228 11.41-303.45-203.985-356.4-313.818-23.282-37.689-28.767-82.095-53.723-117.726-24.773-18.364-54.952 7.14-46.543 32.985-138.768 123.849-230.76 285.615-274.061 486.744-2.566 11.918 2.35 24.199 12.434 31.049s23.314 6.902 33.451.129c127.6-85.266 239.109-188.226 327.422-316.676 21.504 32.373 44.713 62.771 68.883 90.498-94.201 146.889-264.064 263.508-446.092 314.731 159.715 160.998 271.564 386.15 306.779 641.531 447.239 151.182 392.443 778.555-68.625 854.039 23.08 73.301 52.395 143.321 87.188 208.653h-1841.842c34.793-65.332 64.107-137.461 87.188-210.762-457.279-91.045-490.154-707.3-55.137-851.93 35.174-255.434 146.959-480.58 306.598-641.531-182.027-51.223-351.891-167.842-446.092-314.731 24.17-27.727 47.379-58.125 68.883-90.498 88.313 128.449 199.822 231.41 327.422 316.676 10.137 6.773 23.367 6.721 33.451-.129s15-19.131 12.434-31.049c-43.301-201.129-135.293-362.895-274.061-486.744 5.638-52.891-56.553-54.756-66.719 9.013-64.217 174.867-229.529 372.325-364.364 389.812-117.163 16.026-111.946-171.76-104.84-253.939 11.307-103.291 35.861-189.216 79.381-279.577 97.317-198.463 282.468-323.03 467.52-188.877 259.015 192.845 374.571 521.939 399.565 818.908 106.764-73.506 227.414-122.021 356.156-138.738-25.986-50.865-35.678-87.018-84.322-120.416 50.285-21.445 94.594-13.025 136.377 8.022 4.096-67.324-3.146-130.869-16.043-192.533 96.322 76.037 159.059 180.434 161.93 304.611 129.221 16.323 251.339 65.157 358.587 139.066zm-13.506 1154.367c201.825 113.04 231.124 152.267 248.803 96.656 1.849-31.742-28.325-33.516-53.657-51.649-47.161-27.225-123.524-71.313-153.391-88.556-48.589-34.997-74.066 24.586-41.755 43.549zm-914.965-50.742c-208.278 123.387-237.65 121.045-213.095 162.342 26.317 26.624 47.103-2.288 67.082-10.377 28.829-16.648 73.354-42.355 110.422-63.757 41.81-24.435 60.516-34.306 68.809-40.171 28.66-25.149-3.955-64.606-33.218-48.037zm472.16-411.305c-44.688.657-162.307 10.218-162.372 44.459 1.093 69.699 61.475 143.514 133.046 203.785-.035-.022.025 66.917 0 98.848 7.489 112.553-88.21 198.747-199.767 174.323-105.99-24.974-155.434-144.797-104.633-236.153 11.725-20.427-6.162-46.364-29.354-43.224-42.958 5.871-53.464 120.426-48.075 145.379 27.35 215.905 303.837 268.113 411.126 86.031 107.726 179.879 369.431 129.663 408.752-69.735 14.044-61.455-14.206-156.697-41.297-160.762-29.741-7.466-47.18 24.67-31.094 47.337 36.222 70.985 13.939 153.517-42.597 199.222-130.345 97.15-278.107-14.395-264.464-146.305-.003-33.163-.003-94.9-.003-95.026 75.838-64.013 111.357-130.74 120.205-194.49 1.957-14.127-6.539-27.61-20.127-31.94-45.439-14.477-83.906-21.702-129.346-21.749zm-457.511 312.973h-157.653c-16.166 0-29.297 13.131-29.297 29.297 0 16.172 13.131 29.297 29.297 29.297h157.652c16.172 0 29.297-13.125 29.297-29.297 0-16.166-13.125-29.297-29.296-29.297zm914.964 58.593h157.652c16.166 0 29.297-13.125 29.297-29.297 0-16.166-13.131-29.297-29.297-29.297h-157.652c-16.172 0-29.297 13.131-29.297 29.297.001 16.172 13.125 29.297 29.297 29.297zm14.649-98.332c208.288-123.393 237.648-121.043 213.095-162.342-26.313-26.622-47.103 2.295-67.082 10.383-28.829 16.647-73.354 42.353-110.422 63.754-41.81 24.434-60.516 34.304-68.809 40.169-28.66 25.149 3.955 64.606 33.218 48.036zm-914.965-50.742c-201.842-113.044-231.13-152.262-248.803-96.653-1.85 31.738 28.325 33.514 53.657 51.647 47.161 27.225 123.524 71.313 153.391 88.556 48.59 34.996 74.066-24.586 41.755-43.55zm442.834-163.898c-31.055.035-65.865 3.967-98.525 11.76 14.291 41.871 49.453 84.03 98.361 125.848 47.145-41.766 74.683-84.17 86.478-126.023-28.916-7.636-55.781-11.55-86.314-11.585zm-391.295-269.256c-142.361 7.094-137.561 206.09 0 210.937 142.361-7.085 137.562-206.091 0-210.937zm776.719 0c-142.361 7.089-137.562 206.095 0 210.937 142.36-7.089 137.561-206.086 0-210.937zm-776.719 58.594c64.367 3.683 59.857 92.105 0 93.75-64.366-3.683-59.857-92.098 0-93.75zm776.719 0c64.366 3.687 59.856 92.101 0 93.75-64.367-3.679-59.858-92.102 0-93.75zm-887.637-187.899c1.516 76.324 106.321 107.621 173.892 74.875 57.752-24.782 73.723-100.798 24.524-104.173-50.879 8.294-4.018 50.117-75.833 58.193-76.522 1.376-59.924-37.643-69.147-45.493-17.447-24.843-53.54-10.286-53.436 16.598zm835.307-17.578c10.343-42.649 114.189-37.945 111.883 8.837 15.339 38.932 65.578 17.453 56.49-19.11-15.241-87.2-148.903-97.928-201.467-45.619-71.779 78.701 26.969 114.974 33.094 55.892zm-1222.864-769.875c-12.404 29.063-26.502 57.451-41.93 84.82 71.068 109.359 159.416 199.693 260.332 276.199-43.288-144.24-116.267-264.427-218.402-361.019zm1779.54 0c12.404 29.068 26.508 57.451 41.93 84.82-71.068 109.359-159.416 199.693-260.332 276.199 43.294-144.245 116.267-264.427 218.402-361.019zm-803.139 294.586 11.121 1.447c-3.709-.48-7.412-.961-11.121-1.447z" fill-rule="evenodd"/></g></g></svg>