<svg id="Layer_1" enable-background="new 0 0 3000 3000" height="512" viewBox="0 0 3000 3000" width="512" xmlns="http://www.w3.org/2000/svg"><g transform="translate(-2248)"><g id="Icons"><path clip-rule="evenodd" d="m4204.328 1030.26c35.457-429.626 235.876-703.918 401.875-820.483 179.185-128.226 356.244-12.881 453.522 167.816 121.408 221.573 126.158 548.067 11.826 555.874-141.208 11.398-303.423-203.941-356.403-313.818-23.291-37.691-28.729-82.096-53.715-117.726-24.772-18.364-54.939 7.147-46.54 32.984-138.75 123.85-230.741 285.615-274.043 486.744-2.578 11.918 2.345 24.199 12.423 31.049s23.32 6.902 33.457.129c127.559-85.266 239.122-188.227 327.421-316.676 21.505 32.373 44.708 62.772 68.848 90.498-94.159 146.889-264.022 263.508-446.074 314.73 159.727 160.998 271.583 386.15 306.797 641.531 447.215 151.204 392.425 778.552-68.614 854.045 23.028 73.283 52.384 143.309 87.129 208.646h-1841.835c34.804-65.338 64.16-137.484 87.188-210.768-457.193-91.004-490.178-707.243-55.138-851.924 35.215-255.434 146.954-480.58 306.622-641.531-182.051-51.223-351.915-167.842-446.073-314.73 24.14-27.727 47.343-58.125 68.848-90.498 88.3 128.449 199.862 231.41 327.421 316.676 10.136 6.773 23.379 6.721 33.457-.129s15-19.131 12.423-31.049c-43.302-201.129-135.293-362.895-274.043-486.744 5.602-52.942-56.558-54.698-66.731 9.013-63.999 174.574-229.44 372.317-364.352 389.812-117.156 16.028-111.971-171.776-104.844-253.939 11.324-103.291 35.87-189.216 79.388-279.577 97.322-198.453 282.483-323.029 467.523-188.877 259.1 192.916 374.534 521.913 399.584 818.908 106.758-73.506 227.401-122.021 356.132-138.738-25.957-50.865-35.683-87.018-84.316-120.416 50.274-21.445 94.57-13.025 136.348 8.021 4.101-67.324-3.106-130.869-15.996-192.533 96.328 76.037 159.023 180.434 161.894 304.611 129.234 16.314 251.348 65.158 358.591 139.069zm-13.476 1154.367c201.827 113.041 231.12 152.265 248.803 96.656 1.85-31.742-28.325-33.516-53.657-51.649-47.161-27.225-123.524-71.313-153.391-88.556-48.591-34.997-74.066 24.587-41.755 43.549zm-915.001-50.742c-210.438 124.448-234.756 120.394-214.515 160.451 25.725 29.816 48.442-.21 67.387-7.844 27.309-15.77 69.386-40.064 105.71-61.037 44.637-26.07 66.416-37.708 74.635-43.535 28.661-25.147-3.953-64.605-33.217-48.035zm472.208-411.305c-44.665.646-162.309 10.215-162.401 44.459 1.049 69.629 61.547 143.568 133.045 203.785-.035-.022.025 66.917 0 98.848 7.489 112.548-88.213 198.749-199.766 174.323-106.97-25.461-155.916-146.01-103.555-238.301 10.318-20.84-9.787-45.736-32.641-40.703-42.157 10.582-51.552 123.36-45.287 149.701 31.488 212.75 304.408 261.535 410.545 81.336 109.519 182.608 376.131 127.548 409.891-76.671 10.942-52.913-13.897-151.686-44.61-154.366-29.025-5.068-44.369 26.07-28.925 47.877 36.195 70.974 13.92 153.531-42.594 199.222-130.338 97.152-278.104-14.397-264.462-146.305-.003-33.163-.003-94.9-.003-95.026 75.82-64.014 111.387-130.74 120.176-194.49 1.993-14.127-6.504-27.609-20.097-31.939-45.41-14.478-83.906-21.703-129.316-21.75zm-457.559 312.973h-157.617c-16.172 0-29.297 13.131-29.297 29.297 0 16.172 13.125 29.297 29.297 29.297h157.617c16.172 0 29.297-13.125 29.297-29.297-.001-16.166-13.126-29.297-29.297-29.297zm915 58.593h157.617c16.172 0 29.297-13.125 29.297-29.297 0-16.166-13.125-29.297-29.297-29.297h-157.617c-16.172 0-29.297 13.131-29.297 29.297.001 16.172 13.126 29.297 29.297 29.297zm-900.352-149.074c-201.845-113.046-231.125-152.26-248.803-96.653-1.85 31.738 28.325 33.514 53.657 51.647 47.161 27.225 123.524 71.312 153.391 88.556 48.591 34.997 74.066-24.587 41.755-43.55zm915.001 50.742c208.273-123.385 237.654-121.045 213.092-162.342-26.314-26.621-47.097 2.294-67.079 10.383-28.83 16.647-73.354 42.353-110.422 63.754-41.811 24.434-60.516 34.304-68.81 40.169-28.659 25.148 3.955 64.606 33.219 48.036zm-472.149-214.64c-31.055.035-65.859 3.967-98.555 11.76 14.298 41.871 49.511 84.029 98.379 125.848 47.168-41.766 74.707-84.17 86.485-126.023-28.887-7.636-55.782-11.55-86.309-11.585zm105.645-234.299h-211.29c33.884-148.676 24.483-119.636-99.203-122.948-111.097.001-294.033.001-354.406.001-47.883-1.726-58.027 11.034-39.375 74.431 10.535 44.755 27.848 118.293 38.802 164.819 8.263 31.608 8.332 50.64 21.248 59.594 20.275 11.33 28.673 3.43 55.842 5.648 416.583-7.388 321.573 41.57 365.021-122.95h235.431c20.024 89.061 15.783 123.132 50.156 122.946 15.398.001 215.538.001 307.689.001 33.887-.82 53.212 3.548 64.793-7.054 15.898-18.089 8.926-23.181 17.522-49.888 67.343-319.323 120.141-235.901-230.954-247.548-276.676 4.546-251.479-32.398-221.276 122.948zm-296.426 122.947 38.555-187.301h-389.942l44.063 187.301zm343.008-187.301h389.941l-44.063 187.301h-307.324zm-1041.974-887.361c-12.421 29.063-26.542 57.451-41.953 84.82 71.075 109.359 159.433 199.693 260.332 276.199-43.3-144.24-116.249-264.427-218.379-361.019zm1779.494 0c12.421 29.068 26.542 57.451 41.953 84.82-71.075 109.359-159.433 199.693-260.332 276.199 43.3-144.245 116.249-264.427 218.379-361.019z" fill-rule="evenodd"/></g></g></svg>