<svg id="Layer_1" enable-background="new 0 0 3000 3000" height="512" viewBox="0 0 3000 3000" width="512" xmlns="http://www.w3.org/2000/svg"><g transform="translate(-2248 -2810)"><g id="Icons"><path clip-rule="evenodd" d="m4204.328 3840.254c35.439-429.47 235.737-703.788 401.875-820.464 179.188-128.235 356.24-12.934 453.522 167.798 121.525 221.874 126.049 548.145 11.826 555.875-141.28 11.367-303.385-203.896-356.403-313.829-23.291-37.685-28.73-82.088-53.715-117.715-24.798-18.395-54.929 7.191-46.54 32.983-138.75 123.866-230.741 285.645-274.043 486.739-2.578 11.952 2.345 24.198 12.423 31.053 10.078 6.856 23.32 6.915 33.457.117 127.559-85.254 239.122-188.202 327.421-316.641 21.505 32.344 44.708 62.755 68.848 90.47-94.159 146.894-264.022 263.496-446.074 314.765 159.727 160.957 271.583 386.132 306.797 641.484 447.192 151.254 392.458 778.532-68.614 854.063 23.028 73.301 52.384 143.32 87.129 208.652h-1841.835c34.804-65.332 64.16-137.461 87.188-210.762-457.225-91.066-490.157-707.215-55.138-851.953 35.215-255.411 146.954-480.586 306.622-641.484-182.051-51.27-351.915-167.872-446.073-314.765 24.14-27.715 47.343-58.126 68.848-90.47 69.699 101.414 154.695 187.736 250.13 261.202 208.327 176.054 94.563-85.763 55.21-182.872-49.838-108.543-118.638-201.488-206.083-279.599 5.058-53.745-56.723-54.943-67.864 11.982-63.318 170.802-227.458 369.137-363.219 386.838-117.15 16.067-111.973-171.78-104.844-253.944 11.324-103.269 35.869-189.187 79.388-279.564 97.326-198.493 282.478-323.022 467.523-188.862 259.111 192.923 374.541 521.896 399.584 818.901 106.758-73.535 227.401-122.051 356.132-138.751-25.957-50.859-35.683-87.011-84.316-120.409 50.274-21.446 94.57-13.009 136.348 8.027 4.101-67.324-3.106-130.899-15.996-192.538 96.328 76.054 159.023 180.409 161.894 304.629 129.24 16.231 251.349 65.188 358.592 139.044zm-456.269 692.344c-44.647.579-162.292 10.203-162.401 44.445 1.052 69.646 61.544 143.543 133.045 203.759v110.566c-80.801 13.946-142.266 84.375-142.266 169.102v206.952c0 94.688 76.876 171.621 171.563 171.621s171.563-76.933 171.563-171.621v-206.952c0-84.727-61.465-155.156-142.266-169.102v-110.625c75.82-63.985 111.387-130.723 120.176-194.474 1.993-14.121-6.504-27.598-20.097-31.934-45.411-14.472-83.907-21.737-129.317-21.737zm112.323 746.718c-66.889-32.379-157.382-32.617-224.765 0 19.978 136.964 207.48 131.767 224.765 0zm.587-63.106v-155.741c0-62.403-50.626-113.028-112.969-113.028s-112.969 50.625-112.969 113.028v155.741c69.101-26.476 156.322-26.675 225.938 0zm-559.629-285.82-228.457 131.895c-14.005 8.086-18.808 26.017-10.723 40.02 8.087 14.004 26.015 18.808 40.02 10.723l146.367-84.493c-93.347 228.772 285.506 213.029 160.25-21.688-37.405-69.531-66.286-143.476-107.457-76.457zm946.113 98.145c3.642 2.032 144.039 83.342 148.5 85.608 47.651 15.087 50.197-43.808 26.557-52.205-12.319-7.115-208.291-120.255-226.504-130.771-2.173-2.05 1.378 3.45-4.59-5.959-26.416-44.164-56.749-6.856-61.491 5.41-25.172 38.393-72.095 126.554-69.208 160.965 16.617 174.155 268.7 105.009 186.736-63.048zm-913.828-38.144c103.918 164.561-19.654 156.206-34.742 126.628-27.023-32.534 24.577-103.839 34.742-126.628zm828.75 0c103.945 164.654-19.765 156.154-34.758 126.628-26.975-32.532 24.553-103.851 34.758-126.628zm11.777-114.258c.704 15.585 13.535 28.007 29.238 28.007h157.675c16.172 0 29.297-13.125 29.297-29.297s-13.125-29.297-29.297-29.297h-125.39c16.641-17.344 27.246-40.546 28.243-66.21l159.199-91.935c14.063-8.085 18.808-26.015 10.723-40.019-8.028-14.005-25.957-18.809-40.02-10.723l-143.379 82.792c-64.221-137.902-87.725-172.178-135.642-80.153-129.536 202.68 15.985 243.4 59.353 236.835zm-928.593-156.68c-.049-.01-126.054-72.802-141.79-81.875-21.923-15.353-58.171 7.949-40.906 40.262-3.785 6.046 165.407 97.491 169.22 101.497.997 25.664 11.601 48.866 28.242 66.21-8.059.941-132.712-2.31-136.287 2.095-23.853 9.149-23.46 41.341-3.886 52.498 18.641 7.726 14.244 2.57 29.464 4.003 137.789-1.97 167.669 10.957 172.232-28.009 58.248 7.2 110.915-38.208 113.326-96.174 2.889-33.574-25.891-93.279-55.211-142.777-52.158-104.098-81.722-26.66-134.404 82.27zm88.066-45.468c103.918 164.561-19.654 156.206-34.742 126.628-27.023-32.534 24.577-103.839 34.742-126.628zm870.645 91.581c-7.076-28.797-27.168-65.43-41.895-91.582-118.109 181.06 59.511 167.107 41.895 91.582zm-456.27-174.375c-31.055 0-65.859 3.925-98.555 11.719 14.298 41.894 49.511 84.083 98.379 125.859 47.168-41.777 74.707-84.14 86.485-126.035-28.887-7.617-55.782-11.543-86.309-11.543zm-243.34-111.035c-.871-133.252-142.785-212.152-255.374-148.799-89.804 46.479-118.379 200.129-44.518 175.117 25.336-11.935 12.113-46.069 24.184-67.428 29.493-74.881 123.846-93.635 180.101-42.245 45.492 42.404 31.433 80.531 41.013 98.139 16.258 27.01 54.653 13.205 54.594-14.784zm828.75 0c-.871-133.252-142.784-212.152-255.373-148.799-89.805 46.479-118.38 200.129-44.519 175.117 25.336-11.935 12.113-46.069 24.184-67.428 29.493-74.881 123.846-93.635 180.101-42.245 45.492 42.404 31.433 80.531 41.013 98.139 16.258 27.01 54.652 13.205 54.594-14.784zm-159.96-245.097c131.536 21.337 135.558 110.048 173.173 100.529 91.264-32.995-95.477-152.364-129.965-151.437-85.474-29.411-79.694 46.503-43.208 50.908zm-858.985-58.008c-104.032 8.802-240.29 130.539-169.531 157.486 25.225 7.939 33.964-14.615 47.848-29.521 14.259-16.099 29.117-28.739 46.058-39.661 43.504-29.562 87.571-26.54 98.374-36.772 23.797-20.301 4.405-55.38-22.749-51.532zm-456.212-771.914c-12.421 29.062-26.542 57.479-41.953 84.844 71.075 109.335 159.433 199.687 260.332 276.21-43.3-144.257-116.249-264.433-218.379-361.054zm1779.494 0c12.421 29.062 26.542 57.479 41.953 84.844-71.075 109.335-159.433 199.687-260.332 276.21 43.3-144.257 116.249-264.433 218.379-361.054z" fill-rule="evenodd"/></g></g></svg>