<svg id="Layer_1" enable-background="new 0 0 3000 3000" height="512" viewBox="0 0 3000 3000" width="512" xmlns="http://www.w3.org/2000/svg"><g transform="translate(-562 -562)"><g id="Icons"><path clip-rule="evenodd" d="m2518.34 1592.26c35.405-429.36 235.726-703.812 401.863-820.483 179.188-128.228 356.24-12.886 453.523 167.816 121.409 221.574 126.156 548.068 11.826 555.874-141.207 11.403-303.437-203.967-356.397-313.818-23.282-37.689-28.767-82.095-53.723-117.726-24.773-18.364-54.952 7.14-46.543 32.985-138.767 123.849-230.76 285.615-274.06 486.744-2.567 11.918 2.35 24.199 12.433 31.049 10.084 6.85 23.314 6.902 33.451.129 127.6-85.266 239.109-188.226 327.422-316.676 21.504 32.373 44.713 62.771 68.883 90.498-94.201 146.889-264.064 263.508-446.092 314.731 159.715 160.998 271.564 386.15 306.779 641.531 447.239 151.2 392.457 778.543-68.625 854.039 23.08 73.301 52.394 143.321 87.187 208.653h-1841.841c34.793-65.332 64.108-137.461 87.188-210.762-457.279-91.045-490.154-707.3-55.137-851.93 35.174-255.434 146.959-480.58 306.598-641.531-182.027-51.223-351.891-167.842-446.092-314.731 24.17-27.727 47.379-58.125 68.883-90.498 88.313 128.449 199.822 231.41 327.422 316.676 10.137 6.773 23.367 6.721 33.451-.129s15-19.131 12.433-31.049c-43.301-201.129-135.293-362.895-274.06-486.744 5.638-52.891-56.554-54.756-66.719 9.013-64.217 174.866-229.529 372.325-364.364 389.812-117.163 16.026-111.946-171.76-104.84-253.939 11.307-103.291 35.861-189.216 79.381-279.577 97.317-198.463 282.468-323.03 467.52-188.877 259.015 192.845 374.571 521.939 399.565 818.908 106.764-73.506 227.414-122.021 356.156-138.738-25.986-50.865-35.678-87.018-84.322-120.416 50.285-21.445 94.594-13.025 136.377 8.022 4.096-67.324-3.146-130.869-16.043-192.533 96.323 76.037 159.059 180.434 161.93 304.611 129.221 16.323 251.339 65.156 358.587 139.066zm-456.311 692.32c-44.688.656-162.307 10.218-162.372 44.459 1.094 69.7 61.474 143.514 133.046 203.785-1.255 30.207 4.01 130.292-5.497 157.281-19.675 74.568-91.41 126.58-170.947 119.646l27.123-46.84c6.65-11.484 4.746-26.01-4.641-35.396-9.387-9.387-23.906-11.285-35.397-4.635l-80.513 46.617c-36.782-32.443-59.028-82.993-53.957-136.416 3.845-49.887 28.609-65.086 21.926-85.517-57.486-95.503-136.361 143.531-20.634 252.425l-82.189 47.59c-100.554-106.093-247.51 39.093-149.549 140.672-48.616 94.492 51.427 186.702 139.582 139.576 106.805 99.777 244.653-54.099 140.666-149.543l66.053-114.077c97.712 20.379 191.137-26.201 237.27-106.177 47.213 82.999 144.403 125.955 237.27 106.177l66.053 114.077c-106.098 100.527 39.108 247.526 140.666 149.543 94.492 48.641 186.684-51.421 139.582-139.576 99.755-106.825-54.077-244.654-149.549-140.672l-82.189-47.59c126.904-130.827 20.981-351.293-21.549-248.019 2.378 28.73 24.219 52.535 23.083 84.089 4.116 52.335-18.004 101.356-54.198 133.438-.085-.004-65.42-37.91-78.364-45.373-2.677-1.324-.714-1.122-8.878-4.091-73.891-2.153-15.226 72.203-6.185 89.718-73.36 6.898-141.722-38.766-166.017-104.339-17.286-37.591-8.415-133.351-10.426-172.651 75.838-64.013 111.357-130.74 120.205-194.49 1.957-14.127-6.539-27.61-20.127-31.94-45.44-14.479-83.907-21.704-129.347-21.751zm-429 627.779c-12.298 7.612-31.611 4.6-40.12-9.874-41.553-86.818-139.112 17.2-54.589 55.596 4.498 3.307 7.123 6.982 9.718 12.415 13.753 39.2-52.094 46.726-10.708 98.438 46.384 36.499 65.684-13.001 81.795-12.419 31.692-3.949 28.364 21.445 45.686 34.9 21.76 17.739 54.405 10.34 67.296-15.224 25.187-71.112-67.067-50.58-36.627-105.7 11.542-19.936 82.088-141.776 82.129-141.846zm797.075 60.868c7.608 12.294 4.602 31.616-9.874 40.121-86.816 41.54 17.192 139.116 55.596 54.589 3.307-4.497 6.981-7.12 12.415-9.714 39.207-13.753 46.719 52.085 98.433 10.708 36.504-46.379-12.992-65.689-12.418-81.8-3.955-31.686 21.453-28.367 34.905-45.685 17.738-21.752 10.34-54.405-15.224-67.297-71.11-25.188-50.585 67.072-105.7 36.627-19.936-11.542-141.775-82.088-141.846-82.129zm74.73-226.6c201.826 113.041 231.124 152.266 248.803 96.656 1.849-31.742-28.325-33.516-53.657-51.649-47.161-27.225-123.524-71.313-153.391-88.556-48.589-34.997-74.066 24.586-41.755 43.549zm-914.965-50.742c-211.217 124.602-232.224 120.098-215.8 158.42 24.997 32.659 49.461 2.282 67.574-5.179 26.54-15.325 67.721-39.103 103.855-59.965 45.654-26.457 68.224-39.197 75.698-43.818 31.553-23.986-.779-66.577-31.327-49.458zm14.648-98.332h-157.652c-16.166 0-29.297 13.131-29.297 29.297 0 16.172 13.131 29.297 29.297 29.297h157.652c16.172 0 29.297-13.125 29.297-29.297 0-16.166-13.125-29.297-29.297-29.297zm914.966 58.593h157.652c16.166 0 29.297-13.125 29.297-29.297 0-16.166-13.131-29.297-29.297-29.297h-157.652c-16.172 0-29.297 13.131-29.297 29.297 0 16.172 13.125 29.297 29.297 29.297zm-900.317-149.074c-201.842-113.044-231.13-152.262-248.803-96.653-1.85 31.738 28.325 33.514 53.657 51.647 47.161 27.225 123.524 71.313 153.391 88.556 48.59 34.996 74.066-24.586 41.755-43.55zm914.965 50.742c208.288-123.393 237.647-121.043 213.094-162.342-26.313-26.622-47.103 2.295-67.082 10.383-28.829 16.647-73.354 42.353-110.422 63.754-41.81 24.434-60.516 34.304-68.809 40.169-28.659 25.149 3.956 64.606 33.219 48.036zm-472.131-214.64c-31.055.035-65.865 3.967-98.525 11.76 14.291 41.871 49.453 84.03 98.361 125.848 47.145-41.766 74.684-84.17 86.479-126.023-28.917-7.636-55.782-11.55-86.315-11.585zm251.906-195.949c1.594 97.158 141.164 148.965 234.273 88.677 108.835-80.638 22.229-159.104-4.516-95.389-2.305 68.192-108.235 78.075-151.641 41.723-28.251-22.571-13.054-36.85-25.961-53.33-18.02-22.481-52.31-7.755-52.155 18.319zm-791.39 0c1.594 97.157 141.165 148.965 234.273 88.677 108.835-80.638 22.23-159.105-4.516-95.389-2.305 68.192-108.235 78.075-151.641 41.723-28.251-22.571-13.054-36.85-25.961-53.33-18.021-22.481-52.31-7.755-52.155 18.319zm834.035-79.793c220.771-116.604 275.164-121.384 232.669-167.103-25.248-15.943-42.421 7.219-71.446 18.768-53.287 27.274-143.113 73.244-175.711 89.927-54.508 21.288-19.459 75.228 14.488 58.408zm-562.406-52.16c-234.75-116.871-250.93-145.269-270.859-97.798-5.312 35.208 29.107 36.432 48.416 49.783 33.446 17.114 85.815 43.915 128.086 65.548 46.429 23.188 60.753 32.366 74.313 37.077 35.955 7.343 48.693-39.731 20.044-54.61zm-621.915-858.112c-12.404 29.063-26.502 57.451-41.93 84.82 71.068 109.359 159.416 199.693 260.332 276.199-43.288-144.24-116.267-264.427-218.402-361.019zm1779.54 0c12.404 29.068 26.508 57.451 41.93 84.82-71.068 109.359-159.416 199.693-260.332 276.199 43.294-144.245 116.267-264.427 218.402-361.019zm-803.139 294.586 11.121 1.447c-3.709-.48-7.412-.961-11.121-1.447z" fill-rule="evenodd"/></g></g></svg>