<svg id="Layer_1" enable-background="new 0 0 3000 3000" height="512" viewBox="0 0 3000 3000" width="512" xmlns="http://www.w3.org/2000/svg"><g transform="translate(-1686)"><g id="Icons"><path clip-rule="evenodd" d="m3755.648 580.488c161.174-340.06 466.425-629.135 723.794-234.521 135.984 212.621 172.923 648.631-21.31 582.603-158.154-50.701-294.715-257.825-343.715-398.83-11.753-55.562-71.881-34.846-61.523 5.167-138.75 123.85-230.741 285.615-274.042 486.744-2.578 11.918 2.343 24.199 12.422 31.049 10.078 6.85 23.32 6.902 33.457.129 127.559-85.266 239.122-188.227 327.421-316.676 21.505 32.373 44.708 62.772 68.848 90.498-94.159 146.889-264.022 263.508-446.074 314.73 159.727 160.998 271.583 386.15 306.798 641.531 248.297 78.029 374.308 351.131 274.1 589.922-32.401-7.518-69.726-1.658-99.843 23.854-34.844-29.618-80.738-32.903-116.126-18.793-84.21 32.214-84.464 148.456-22.156 230.685-33.046 13.564-68.145 23.221-104.59 28.377 23.028 73.283 52.384 143.309 87.129 208.646h-1841.836c34.805-65.338 64.102-137.484 87.188-210.768-457.193-91.004-490.177-707.243-55.136-851.924 5.098-36.756 11.719-72.885 19.922-108.31 51.156 45.819 84.713-4.511 128.705-34.337 127.412-98.535 127.339-273.432-1.732-289.353 45.234-77.865 99.023-148.336 159.727-209.531-182.052-51.22-351.916-167.839-446.076-314.728 24.141-27.727 47.344-58.125 68.848-90.498 88.301 128.449 199.863 231.41 327.422 316.676 10.136 6.773 23.379 6.721 33.457-.129 10.079-6.85 15-19.131 12.422-31.049-43.3-201.129-135.293-362.895-274.042-486.744 5.604-52.939-56.556-54.701-66.732 9.013-64.427 175.457-229.895 372.417-364.351 389.812-117.156 16.028-111.971-171.776-104.845-253.939 11.324-103.291 35.87-189.216 79.388-279.577 97.322-198.452 282.483-323.029 467.523-188.877 259.098 192.914 374.538 521.915 399.584 818.908 106.758-73.506 227.403-122.021 356.133-138.738-25.958-50.865-35.684-87.018-84.317-120.416 50.273-21.445 94.571-13.025 136.406 8.021 4.043-67.324-3.164-130.869-16.055-192.533 96.328 76.037 159.023 180.434 161.895 304.611 129.236 16.312 251.352 65.156 358.594 139.066 11.598-39.625 6.201-87.07 15.645-129.006 202.003-123.089 174.409-284.881 97.673-320.765zm500.333 1871.532c97.968-144.024 277.752 63.938 0 226.828-281.995-168.458-92.689-368.723 0-226.828zm-627.13-267.393c201.827 113.041 231.12 152.265 248.803 96.656 1.85-31.742-28.325-33.516-53.657-51.649-47.161-27.225-123.524-71.313-153.391-88.556-48.59-34.997-74.065 24.586-41.755 43.549zm-914.999-50.742c-208.258 123.376-237.658 121.048-213.094 162.342 26.321 26.623 47.099-2.287 67.081-10.378 28.829-16.648 73.354-42.355 110.422-63.757 41.81-24.435 60.516-34.306 68.809-40.171 28.659-25.148-3.955-64.605-33.218-48.036zm501.445-163.125c63.375-53.455 99.437-110.05 114.022-164.207 3.643-16.896 15.305-44.931-7.597-59.335-50.629-19.679-99.269-25.502-150.049-24.389-46.63 2.233-142.527 12.951-146.867 39.842-8.005 65.034 65.132 153.329 131.897 208.153-.035-.022.025 66.917 0 98.848 7.489 112.548-88.213 198.749-199.766 174.323-106.97-25.46-155.918-146.011-103.555-238.301 10.327-20.84-9.797-45.737-32.664-40.703-42.12 10.607-51.533 123.339-45.264 149.701 31.488 212.75 304.408 261.535 410.546 81.336 107.756 179.882 369.437 129.661 408.73-69.735 14.045-61.448-14.228-156.692-41.268-160.762-29.732-7.477-47.167 24.685-31.107 47.337 36.196 70.974 13.92 153.531-42.594 199.222-130.338 97.152-278.104-14.397-264.462-146.305-.002-33.163-.002-94.899-.002-95.025zm-486.797 64.793h-157.617c-16.172 0-29.297 13.131-29.297 29.297 0 16.172 13.125 29.297 29.297 29.297h157.617c16.172 0 29.297-13.125 29.297-29.297 0-16.166-13.125-29.297-29.297-29.297zm915 58.593h157.617c16.172 0 29.297-13.125 29.297-29.297 0-16.166-13.125-29.297-29.297-29.297h-157.617c-16.172 0-29.297 13.131-29.297 29.297 0 16.172 13.125 29.297 29.297 29.297zm-900.351-149.074c-201.838-113.042-231.128-152.262-248.804-96.653-1.85 31.738 28.326 33.514 53.658 51.647 47.161 27.225 123.524 71.312 153.391 88.556 48.589 34.996 74.065-24.587 41.755-43.55zm914.999 50.742c198.817-118.273 247.429-124.029 208.105-167.141-26.56-17.471-43.185 7.774-71.555 20.646-47.159 27.23-123.521 71.317-153.388 88.561-54.604 24.583-15.737 76.436 16.838 57.934zm-472.148-214.64c-31.055.035-65.859 3.967-98.554 11.76 14.297 41.871 49.511 84.029 98.378 125.848 47.168-41.766 74.707-84.17 86.485-126.023-28.887-7.636-55.782-11.55-86.309-11.585zm325.313-144.27c1.689-82.153 99.472-112.665 149.228-56.186 26.353 29.089 16.859 55.393 25.163 70.969 14.007 24.154 48.501 15.767 53.819-8.07 7.601-121.245-130.824-191.168-224.989-124.824-37.953 26.444-62.604 70.491-61.726 120.398 4.841 39.333 58.027 32.888 58.505-2.287zm-821.016 0c1.663-82.158 99.454-112.67 149.228-56.186 26.353 29.089 16.859 55.393 25.163 70.969 14.007 24.154 48.501 15.767 53.819-8.07 7.601-121.245-130.825-191.168-224.99-124.824-37.953 26.444-62.603 70.491-61.726 120.398 4.843 39.333 58.029 32.888 58.506-2.287zm-338.613-204.416c97.972-144.024 277.751 63.941 0 226.828-281.958-168.37-92.738-368.757 0-226.828zm-55.43-837.328c-12.422 29.063-26.543 57.451-41.953 84.82 71.074 109.359 159.433 199.693 260.332 276.199-43.301-144.24-116.25-264.427-218.379-361.019zm1779.493 0c12.421 29.068 26.542 57.451 41.953 84.82-71.075 109.359-159.433 199.693-260.332 276.199 43.3-144.245 116.249-264.427 218.379-361.019zm-445.723 55.225c97.995-144.059 277.734 64.009 0 226.828-282.068-168.525-92.582-368.721 0-226.828z" fill-rule="evenodd"/></g></g></svg>