<svg id="Layer_1" enable-background="new 0 0 3000 3000" height="512" viewBox="0 0 3000 3000" width="512" xmlns="http://www.w3.org/2000/svg"><g transform="translate(0 -2248)"><g id="Icons"><path clip-rule="evenodd" d="m1956.34 3278.254c35.242-426.752 233.015-700.356 399.57-818.905 178.303-129.14 354.313-18.113 453.105 161.286 123.945 221.321 131.906 560.647 9.033 561.437-145.55 3.272-305.634-214.632-357.96-328.714-19.917-33.264-23.592-72.745-46.657-103.439-24.773-18.356-54.939 7.079-46.542 32.983-138.768 123.866-230.76 285.645-274.061 486.739-2.566 11.952 2.35 24.198 12.434 31.053 10.084 6.856 23.314 6.915 33.451.117 127.6-85.254 239.109-188.202 327.422-316.641 21.504 32.344 44.713 62.755 68.883 90.47-94.201 146.894-264.064 263.496-446.092 314.765 159.715 160.957 271.564 386.132 306.779 641.484 447.22 151.228 392.469 778.555-68.625 854.062 23.08 73.301 52.395 143.32 87.188 208.652h-1841.842c34.793-65.332 64.107-137.461 87.188-210.762-457.226-91.014-490.203-707.236-55.137-851.952 35.174-255.411 146.959-480.586 306.598-641.484-182.027-51.27-351.891-167.872-446.092-314.765 24.17-27.715 47.379-58.126 68.883-90.47 69.71 101.414 154.674 187.736 250.116 261.202 208.346 176.048 94.585-85.762 55.23-182.872-49.839-108.543-118.643-201.488-206.1-279.599 5.884-53.07-56.796-53.417-65.597 6.03-64.151 176.87-230.447 375.344-365.486 392.791-117.158 16.064-111.948-171.763-104.84-253.944 11.307-103.269 35.861-189.187 79.381-279.564 97.321-198.503 282.463-323.024 467.52-188.862 259.026 192.852 374.578 521.922 399.565 818.901 106.764-73.535 227.414-122.051 356.156-138.751-25.986-50.859-35.678-87.011-84.322-120.409 50.285-21.446 94.594-13.009 136.377 8.027 4.096-67.324-3.146-130.899-16.043-192.538 96.322 76.054 159.059 180.409 161.93 304.629 129.227 16.242 251.339 65.189 358.587 139.043zm-456.311 692.344c-44.67.59-162.291 10.206-162.372 44.445 1.096 69.716 61.472 143.49 133.046 203.759v151.933c-201.651-11.832-153.277 125.369-159.311 286.177 1.185 111.498-3.281 167.587 3.746 193.277 27.79 84.564 85.988 84.641 158.028 82.752 71.252-.859 114.599 2.862 136.057-4.187 106.116-39.103 74.532-124.201 79.386-254.137-1.012-115.398 2.743-196.962-2.971-218.032-28.66-98.448-109.216-85.41-156.341-85.851v-151.992c75.838-63.985 111.357-130.723 120.205-194.474 1.957-14.121-6.539-27.597-20.127-31.933-45.439-14.472-83.906-21.737-129.346-21.737zm129.985 770.214c-84.23-74.321-180.576-70.071-260.027 0-2.279 140.771-.828 134.856 131.72 133.535 147.895 6.495 126.554-17.465 128.307-133.535zm0-73.184c-3.573-243.747 29.685-240.995-131.72-238.299-166.611-5.777-121.757 12.726-128.307 238.299 79.642-52.311 179.968-52.595 260.027 0zm310.752-235.018c201.84 113.056 231.131 152.282 248.809 96.67 1.85-31.738-28.325-33.516-53.658-51.651-47.163-27.229-123.527-71.323-153.395-88.569-48.587-34.997-74.069 24.584-41.756 43.55zm-910.828-50.743c-198.818 118.289-247.436 124.048-208.111 167.159 26.561 17.471 43.186-7.775 71.557-20.648 47.16-27.234 123.525-71.328 153.392-88.574 54.603-24.586 15.739-76.437-16.838-57.937zm14.648-98.321h-157.652c-16.172 0-29.297 13.125-29.297 29.297s13.125 29.297 29.297 29.297h157.652c16.166 0 29.297-13.125 29.297-29.297s-13.131-29.297-29.297-29.297zm910.828 58.594h157.652c16.172 0 29.297-13.125 29.297-29.297s-13.125-29.297-29.297-29.297h-157.652c-16.166 0-29.297 13.125-29.297 29.297s13.131 29.297 29.297 29.297zm14.649-98.319c198.821-118.292 247.435-124.049 208.111-167.159-26.562-17.471-43.186 7.775-71.557 20.649-47.16 27.234-123.525 71.328-153.392 88.573-54.604 24.585-15.741 76.437 16.838 57.937zm-910.829-50.743c-201.84-113.056-231.131-152.282-248.809-96.67-1.85 31.736 28.326 33.514 53.658 51.649 47.163 27.229 123.527 71.324 153.395 88.57 48.588 34.998 74.069-24.584 41.756-43.549zm440.766-163.887c-31.055 0-65.865 3.925-98.525 11.719 14.291 41.894 49.453 84.083 98.361 125.859 47.145-41.777 74.683-84.14 86.478-126.035-28.916-7.617-55.781-11.543-86.314-11.543zm462.463-307.206c.026-.008-158.163 82.006-158.203 82.031-47.553 40.43 18.674 60.379 45.127 75.429 76.244 34.603 140.923 94.204 155.503 37.19 1.773-32.528-22.246-31.214-45.277-46.051-32.03-16.604-78.114-40.497-78.221-40.552 4.318-2.402 105.425-54.408 110.125-57.206 32.583-22.439 2.274-66.57-29.054-50.841zm-951.897 52.03 108.041 56.016c-.063-.003-76.354 39.613-100.726 52.223-8.484 4.635-2.483.745-11.355 6.319-28.848 22.855-.776 62.795 28.834 50.523 3.985-.882 155.091-80.963 160.363-83.039 53.535-45.786-32.294-64.365-101.62-104.743-29.336-15.21-54.024-28.011-56.393-29.24-34.032-16.586-61.47 31.317-27.144 51.941zm-400.336-930.878c-12.404 29.062-26.502 57.479-41.93 84.844 71.068 109.335 159.416 199.687 260.332 276.21-43.288-144.257-116.267-264.433-218.402-361.054zm1779.54 0c12.404 29.062 26.508 57.479 41.93 84.844-71.068 109.335-159.416 199.687-260.332 276.21 43.294-144.257 116.267-264.433 218.402-361.054z" fill-rule="evenodd"/></g></g></svg>