<svg id="Layer_1" enable-background="new 0 0 3000 3000" height="512" viewBox="0 0 3000 3000" width="512" xmlns="http://www.w3.org/2000/svg"><g transform="translate(-1124 -562)"><g id="Icons"><path clip-rule="evenodd" d="m3080.328 1592.26c35.453-429.625 235.881-703.922 401.876-820.483 179.184-128.226 356.243-12.88 453.522 167.816 121.409 221.574 126.156 548.068 11.826 555.874-141.206 11.398-303.423-203.941-356.403-313.818-23.292-37.691-28.729-82.097-53.715-117.726-24.772-18.364-54.94 7.147-46.539 32.985-138.75 123.849-230.742 285.615-274.042 486.744-2.578 11.918 2.343 24.199 12.422 31.049 10.078 6.85 23.32 6.902 33.457.129 127.559-85.266 239.121-188.226 327.422-316.676 21.504 32.373 44.707 62.771 68.848 90.498-94.16 146.889-264.024 263.508-446.074 314.731 159.727 160.998 271.582 386.15 306.797 641.531 447.22 151.214 392.443 778.556-68.672 854.039 23.085 73.301 52.441 143.321 87.246 208.653h-1841.897c34.805-65.332 64.102-137.461 87.188-210.762-457.247-91.079-490.132-707.264-55.136-851.93 35.215-255.434 147.011-480.58 306.621-641.531-182.051-51.223-351.914-167.842-446.074-314.731 24.141-27.727 47.344-58.125 68.848-90.498 88.301 128.449 199.863 231.41 327.422 316.676 10.137 6.773 23.379 6.721 33.457-.129 10.079-6.85 15-19.131 12.422-31.049-43.3-201.129-135.293-362.895-274.042-486.744 5.604-52.938-56.556-54.702-66.732 9.013-64.427 175.456-229.895 372.417-364.351 389.812-117.156 16.028-111.971-171.776-104.845-253.939 11.324-103.292 35.87-189.216 79.388-279.577 97.322-198.452 282.483-323.029 467.523-188.877 259.098 192.915 374.538 521.915 399.584 818.908 106.758-73.506 227.403-122.021 356.133-138.738-25.958-50.865-35.684-87.018-84.317-120.416 50.273-21.445 94.571-13.025 136.406 8.022 4.043-67.324-3.164-130.869-16.055-192.533 96.328 76.037 159.023 180.434 161.895 304.611 129.234 16.312 251.349 65.155 358.591 139.066zm-13.477 1154.367c201.821 113.037 231.121 152.267 248.804 96.656 1.849-31.741-28.326-33.516-53.658-51.649-47.161-27.225-123.524-71.313-153.391-88.556-48.589-34.997-74.065 24.586-41.755 43.549zm-914.999-50.742c-202.399 120.227-243.995 122.917-209.878 165.689 26.817 20.604 45.12-6.525 73.329-19.189 43.851-25.322 112.936-65.209 146.45-84.559 67.774-30.128 19.278-80.224-9.901-61.941zm501.445-163.125c63.375-53.455 99.437-110.05 114.022-164.207 3.643-16.896 15.305-44.931-7.597-59.335-50.629-19.679-99.269-25.502-150.049-24.388-46.63 2.233-142.527 12.95-146.867 39.842-8.005 65.034 65.132 153.329 131.897 208.153-.036-.012.026 66.91 0 98.848 7.482 110.83-85.719 197.011-196.57 175.052-109.404-23.96-158.59-144.801-107.824-236.882 9.881-17.309-1.5-41.161-22.588-43.305-46.335-6.113-59.012 109.758-55.694 135.137 18.822 225.042 303.84 280.884 411.973 96.354 107.756 179.882 369.437 129.661 408.73-69.735 14.045-61.448-14.228-156.692-41.268-160.762-29.733-7.477-47.167 24.685-31.107 47.337 36.196 70.974 13.92 153.531-42.594 199.222-130.338 97.152-278.104-14.397-264.462-146.305-.002-33.163-.002-94.9-.002-95.026zm-486.797 64.793h-157.617c-16.172 0-29.297 13.131-29.297 29.297 0 16.172 13.125 29.297 29.297 29.297h157.617c16.172 0 29.297-13.125 29.297-29.297 0-16.166-13.125-29.297-29.297-29.297zm915 58.593h157.617c16.172 0 29.297-13.125 29.297-29.297 0-16.166-13.125-29.297-29.297-29.297h-157.617c-16.172 0-29.297 13.131-29.297 29.297 0 16.172 13.125 29.297 29.297 29.297zm-900.351-149.074c-201.837-113.041-231.128-152.262-248.804-96.653-1.85 31.738 28.326 33.514 53.658 51.647 47.161 27.225 123.524 71.313 153.391 88.556 48.589 34.996 74.065-24.587 41.755-43.55zm914.999 50.742c208.268-123.382 237.656-121.046 213.094-162.342-26.316-26.621-47.098 2.293-67.081 10.383-28.829 16.647-73.354 42.353-110.422 63.754-41.81 24.434-60.516 34.304-68.809 40.169-28.659 25.148 3.955 64.606 33.218 48.036zm-472.148-214.64c-31.055.035-65.859 3.967-98.554 11.76 14.297 41.871 49.511 84.03 98.378 125.848 47.168-41.766 74.707-84.17 86.485-126.023-28.887-7.636-55.782-11.55-86.309-11.585zm-575.098-97.852c3.65 10.317 14.675 19.236 27.481 19.166v-.006c9.008-.29 15.113-3.138 24.255-11.373 66.047-54.47 128.454-69.704 193.94-46.072 58.411 20.831 79.563 58.378 100.729 57.451v-.006c55.276-3.44 18.547-97.022 6.776-120.022-20.132-38.588-52.295-69.942-91.347-88.181-140.138-64.132-276.283 66.907-261.834 189.043zm776.309 0c48.076 85.702 115.985-162.201 337.383 17.745 85.162 13.225 17.645-172.452-73.467-205.8-140.544-66.392-278.432 65.032-263.916 188.055zm-477.305-78.392c-54.617-94.467-174.166-88.611-224.297.299 74.343-39.122 149.409-39.725 224.297-.299zm776.367.006c-54.707-94.448-174.189-88.645-224.356.293 74.385-39.137 149.392-39.709 224.356-.293zm-166.113-248.508c79.273-4.653 166.281 39.441 221.021 100.47 12.863 11.891 21.956 35.24 38.514 39.387 124.639-10.161-96.948-172.919-142.199-178.255-197.116-66.517-153.863 45.761-117.336 38.398zm-664.921-58.495c-167.981-14.062-376.39 186.677-269.604 199.319 34.522-3.522 51.602-78.726 158.504-120.584 62.919-28.26 111.68-15.916 123.385-23.728 27.341-15.22 15.134-53.496-12.285-55.007zm-558.985-702.773c-12.422 29.063-26.543 57.451-41.953 84.82 71.074 109.359 159.433 199.693 260.332 276.199-43.301-144.24-116.25-264.427-218.379-361.019zm1779.492 0c12.422 29.068 26.543 57.451 41.953 84.82-71.074 109.359-159.433 199.693-260.332 276.199 43.301-144.245 116.25-264.427 218.379-361.019zm-803.086 294.586 11.074 1.447c-3.691-.48-7.382-.961-11.074-1.447z" fill-rule="evenodd"/></g></g></svg>