<svg id="Layer_1" enable-background="new 0 0 3000 3000" height="512" viewBox="0 0 3000 3000" width="512" xmlns="http://www.w3.org/2000/svg"><g transform="translate(-2248 -2248)"><g id="Icons"><path clip-rule="evenodd" d="m4204.328 3278.254c35.439-429.47 235.737-703.788 401.875-820.464 179.188-128.235 356.24-12.934 453.522 167.798 121.525 221.874 126.049 548.145 11.826 555.875-141.28 11.367-303.385-203.896-356.403-313.829-23.291-37.685-28.73-82.088-53.715-117.715-24.798-18.395-54.929 7.191-46.54 32.983-138.75 123.866-230.741 285.645-274.043 486.739-2.578 11.952 2.345 24.198 12.423 31.053 10.078 6.856 23.32 6.915 33.457.117 127.559-85.254 239.122-188.202 327.421-316.641 21.505 32.344 44.708 62.755 68.848 90.47-94.159 146.894-264.022 263.496-446.074 314.765 159.727 160.957 271.583 386.132 306.797 641.484 447.192 151.254 392.458 778.531-68.614 854.062 23.028 73.301 52.384 143.32 87.129 208.652h-1841.835c34.804-65.332 64.16-137.461 87.188-210.762-457.225-91.066-490.157-707.215-55.138-851.952 35.215-255.411 146.954-480.586 306.622-641.484-182.051-51.27-351.915-167.872-446.073-314.765 24.14-27.715 47.343-58.126 68.848-90.47 69.699 101.414 154.695 187.736 250.13 261.202 208.327 176.054 94.563-85.763 55.21-182.872-49.838-108.543-118.638-201.488-206.083-279.599 5.058-53.745-56.723-54.943-67.864 11.982-63.318 170.802-227.458 369.137-363.219 386.838-117.15 16.067-111.973-171.78-104.844-253.944 11.324-103.269 35.869-189.187 79.388-279.564 97.326-198.493 282.478-323.022 467.523-188.862 259.111 192.923 374.541 521.896 399.584 818.901 106.758-73.535 227.401-122.051 356.132-138.751-25.957-50.859-35.683-87.011-84.316-120.409 50.274-21.446 94.57-13.009 136.348 8.027 4.101-67.324-3.106-130.899-15.996-192.538 96.328 76.054 159.023 180.409 161.894 304.629 129.24 16.231 251.349 65.188 358.592 139.044zm-456.269 692.344c-44.647.579-162.292 10.203-162.401 44.445 1.052 69.646 61.544 143.543 133.045 203.759v153.105c-224.863-12.965-287.074-92.188-318.575-69.609-23.113 13.049-10.509 61.231-8.989 86.611 41.382 290.404 385.52 369.817 584.675 222.201 61.916-46.154 108.538-114.17 125.99-204.363 37.3-216.773-63.34-38.078-324.508-34.722v-153.281c75.82-63.985 111.387-130.723 120.176-194.474 1.993-14.121-6.504-27.597-20.097-31.933-45.41-14.474-83.906-21.739-129.316-21.739zm96.621 641.191c-49.259-69.956-148.502-64.967-193.359-.059 62.401 18.692 130.957 18.692 193.359.059zm-396.562-239.707c13.125 105 71.895 177.422 148.008 217.266 71.422-118.379 236.644-113.011 303.749.059 75.996-39.668 134.707-111.973 147.891-216.973-199.863 79.452-399.727 77.93-599.648-.352zm740.624 60.528c210.957 118.68 223.719 145.327 247.142 103.389 9.95-36.089-25.531-39.633-42.533-52.905-28.832-16.646-73.356-42.355-110.424-63.759-42.065-23.995-59.967-35.261-69.192-39.511-36.108-12.244-53.974 35.723-24.993 52.786zm-910.781-50.743c-198.813 118.289-247.43 124.05-208.106 167.159 26.562 17.471 43.186-7.774 71.556-20.648 47.158-27.234 123.521-71.328 153.388-88.574 54.603-24.586 15.74-76.437-16.838-57.937zm14.649-98.321h-157.675c-16.172 0-29.297 13.125-29.297 29.297s13.125 29.297 29.297 29.297h157.675c16.113 0 29.297-13.125 29.297-29.297s-13.184-29.297-29.297-29.297zm910.781 58.594h157.675c16.172 0 29.297-13.125 29.297-29.297s-13.125-29.297-29.297-29.297h-157.675c-16.113 0-29.297 13.125-29.297 29.297s13.183 29.297 29.297 29.297zm14.648-98.319c205.995-122.201 240.629-121.903 211.566-164.106-26.592-23.377-45.585 4.066-66.684 12.784-31.133 17.98-79.735 46.044-117.794 68.02-37.765 22.101-51.604 29.165-60.307 35.266-28.659 25.149 3.955 64.603 33.219 48.036zm-910.781-50.743c-201.832-113.054-231.126-152.283-248.804-96.67-1.851 31.736 28.326 33.514 53.658 51.649 47.161 27.229 123.524 71.324 153.391 88.57 48.585 34.997 74.068-24.582 41.755-43.549zm440.742-163.887c-31.055 0-65.859 3.925-98.555 11.719 14.298 41.894 49.511 84.083 98.379 125.859 47.168-41.777 74.707-84.14 86.485-126.035-28.887-7.617-55.782-11.543-86.309-11.543zm-490.253-166.699c1.686-82.177 99.457-112.643 149.207-56.198 26.376 29.094 16.876 55.391 25.183 70.981 13.398 23.282 46.496 16.369 53.235-5.945 11.329-120.37-128.202-193.255-222.557-128.207-39.456 26.721-65.61 72.434-63.314 123.896 7.271 37.593 57.94 29.252 58.246-4.527zm810.117 0c1.68-82.181 99.485-112.646 149.227-56.198 20.02 21.891 18.783 41.75 23.256 67.095 6.592 18.728 32.525 24.427 47.146 10.558 10.145-8.945 10.128-21.736 8.655-35.706-9.402-97.176-111.089-155.664-199.547-118.007-52.603 21.236-96.039 84.912-85.236 143.155 13.414 31.413 56.421 19.278 56.499-10.897zm-1209.611-1019.355c-12.421 29.062-26.542 57.479-41.953 84.844 71.075 109.335 159.433 199.687 260.332 276.21-43.3-144.257-116.249-264.433-218.379-361.054zm1779.494 0c12.421 29.062 26.542 57.479 41.953 84.844-71.075 109.335-159.433 199.687-260.332 276.21 43.3-144.257 116.249-264.433 218.379-361.054z" fill-rule="evenodd"/></g></g></svg>