<svg id="Layer_1" enable-background="new 0 0 3000 3000" height="512" viewBox="0 0 3000 3000" width="512" xmlns="http://www.w3.org/2000/svg"><g transform="translate(-2248 -1686)"><g id="Icons"><path clip-rule="evenodd" d="m4204.328 2716.254c35.44-429.469 235.737-703.786 401.875-820.464 179.188-128.234 356.24-12.934 453.522 167.797 121.442 221.665 126.124 548.115 11.826 555.875-141.284 11.364-303.383-203.893-356.403-313.828-23.291-37.686-28.73-82.088-53.715-117.715-24.784-18.377-54.935 7.145-46.54 32.983-138.75 123.867-230.741 285.645-274.043 486.738-2.578 11.953 2.345 24.199 12.423 31.055 10.078 6.855 23.32 6.914 33.457.117 127.559-85.254 239.122-188.203 327.421-316.641 21.505 32.344 44.708 62.754 68.848 90.469-94.159 146.895-264.022 263.497-446.074 314.766 159.727 160.957 271.583 386.132 306.797 641.484 447.192 151.254 392.458 778.531-68.614 854.062 23.028 73.301 52.384 143.32 87.129 208.652h-1841.835c34.804-65.332 64.16-137.461 87.188-210.762-457.225-91.066-490.157-707.215-55.138-851.952 35.215-255.411 146.954-480.528 306.622-641.484-182.051-51.27-351.915-167.871-446.073-314.766 24.14-27.715 47.343-58.125 68.848-90.469 69.699 101.413 154.695 187.736 250.13 261.201 208.327 176.053 94.563-85.764 55.21-182.872-49.838-108.543-118.638-201.488-206.083-279.599 5.598-52.953-56.544-54.699-66.731 9.008-63.763 174.018-229.07 372.255-364.352 389.812-117.144 16.067-111.974-171.757-104.844-253.925 11.325-103.312 35.869-189.197 79.388-279.583 97.326-198.492 282.478-323.021 467.523-188.861 259.111 192.923 374.54 521.895 399.584 818.901 106.758-73.535 227.401-122.051 356.132-138.75-25.957-50.86-35.683-87.012-84.316-120.411 50.274-21.445 94.57-13.008 136.348 8.027 4.101-67.324-3.106-130.898-15.996-192.539 96.328 76.054 159.023 180.41 161.894 304.629 129.24 16.235 251.349 65.188 358.592 139.045zm-456.269 692.344c-44.684.65-162.275 10.173-162.401 44.445 1.052 69.645 61.544 143.543 133.045 203.758-1.146 30.087 3.332 187.344-4.061 215.15-43.933 183.808-299.765 165.371-320.564-18.611-8.786-79.623 57.234-117.889-3.061-135.917-48.274-6.097-60.168 117.408-55.123 143.079 25.325 217.633 303.522 271.42 411.403 88.39 111.218 185.441 382.911 125.357 410.838-83.68 8.167-45.731-13.699-149.675-50.08-147.903-63.575 7.49-5.721 69.72-7.96 103.681 13.197 228.348-310.66 242.538-323.501 20.675.469-2.109.704-4.277.704-6.445v-178.477c75.82-63.984 111.387-130.722 120.176-194.472 1.993-14.121-6.504-27.598-20.097-31.934-45.412-14.474-83.908-21.681-129.318-21.739zm-470.098 411.269c-198.813 118.289-247.43 124.05-208.106 167.159 26.562 17.471 43.186-7.775 71.556-20.649 47.158-27.234 123.521-71.328 153.388-88.574 54.603-24.585 15.74-76.436-16.838-57.936zm910.781 50.743c210.957 118.68 223.719 145.327 247.142 103.389 9.95-36.089-25.531-39.633-42.533-52.905-28.832-16.646-73.356-42.355-110.424-63.759-42.065-23.994-59.967-35.261-69.192-39.511-36.108-12.244-53.974 35.723-24.993 52.786zm165.528-86.954c10.709-.439 72.543.992 80.132-.773 46.72-19.391 15.786-67.328-25.347-57.82 21.21-45.879 13.769-101.777-22.325-140.625 94.919-42.921 33.558-83.41 13.633-74.559-2.313-.982-65.532 37.404-68.594 38.641-240.146-89.266-223.908-52.116-203.369 31.456 36.094 163.619 96.853 259.471 225.87 203.68zm-1190.039-235.136c-9.657-4.324-65.417-41.257-75.343-39.757-25.981-1.579-38.755 28.87-24.726 46.945 4.862 8.081 38.031 23.676 45.107 28.73-36.093 38.848-43.535 94.746-22.325 140.625-65.322-7.809-56.885 59.565-16.872 58.594 10.474-.001 63.521 0 70.857 0 14.137 7.558 45.367 17.718 67.313 15.525 109.081-4.68 133.712-118.846 162.848-234.004 19.643-67.962-1.905-79.098-63.799-61.338-39.332 8.584-111.184 29.145-143.06 44.68zm1020.292 14.472c46.207 11.553 123.762 31.301 155.942 57.92 46.961 45.204 12.696 119.81-47.544 119.78-76.608 3.111-92.724-129.851-108.398-177.7zm-873.046 0c-11.585 46.463-31.518 124.123-57.919 155.942-43.908 45.983-117.821 14.185-119.743-45.228-5.281-78.74 128.127-94.524 177.662-110.714zm436.523-95.801c-31.055 0-65.859 3.926-98.555 11.719 14.298 41.895 49.511 84.082 98.379 125.859 47.168-41.777 74.707-84.14 86.485-126.035-28.887-7.617-55.782-11.543-86.309-11.543zm-511.876-285.292 108.048 56.074c-.063-.003-76.359 39.613-100.733 52.223-8.483 4.635-2.485.745-11.354 6.318-27.861 21.849-2.443 60.898 26.615 51.307 3.079-1.137 4.867-2.125 4.55-1.95 5.83-3.024 156.003-80.89 158.011-81.932 53.57-45.704-32.337-64.328-101.617-104.684-29.336-15.21-54.024-28.011-56.393-29.24-33.983-16.629-61.396 31.281-27.127 51.884zm996.798-51.973c.026-.008-158.163 82.006-158.203 82.031-47.569 40.375 18.667 60.308 45.127 75.371 76.548 34.575 145.247 97.857 155.809 32.698-2.789-29.095-22.399-26.648-44.24-40.796-32.063-16.62-79.481-41.203-79.587-41.258 4.317-2.403 105.432-54.467 110.132-57.264 32.523-22.419 2.242-66.551-29.038-50.782zm-1374.669-848.79c-12.421 29.063-26.542 57.481-41.953 84.844 71.075 109.335 159.433 199.687 260.332 276.21-43.3-144.257-116.249-264.432-218.379-361.054zm1779.494 0c12.421 29.122 26.542 57.481 41.953 84.844-71.075 109.335-159.433 199.687-260.332 276.21 43.3-144.257 116.249-264.432 218.379-361.054zm-803.145 294.61 11.132 1.465c-3.691-.469-7.383-.996-11.132-1.465z" fill-rule="evenodd"/></g></g></svg>