<svg id="Layer_1" enable-background="new 0 0 3000 3000" height="512" viewBox="0 0 3000 3000" width="512" xmlns="http://www.w3.org/2000/svg"><g transform="translate(-1124)"><g id="Icons"><path clip-rule="evenodd" d="m3080.328 1030.26c35.453-429.625 235.882-703.922 401.876-820.483 179.184-128.226 356.243-12.88 453.522 167.816 121.409 221.574 126.157 548.068 11.826 555.874-141.206 11.398-303.423-203.941-356.403-313.818-23.292-37.691-28.729-82.097-53.715-117.726-24.772-18.364-54.94 7.147-46.539 32.984-138.75 123.85-230.742 285.615-274.042 486.744-2.578 11.918 2.343 24.199 12.422 31.049 10.078 6.85 23.32 6.902 33.457.129 127.559-85.266 239.121-188.227 327.422-316.676 21.504 32.373 44.707 62.772 68.848 90.498-94.16 146.889-264.024 263.508-446.074 314.73 159.727 160.998 271.582 386.15 306.797 641.531 447.224 151.21 392.437 778.577-68.672 854.045 23.085 73.283 52.441 143.309 87.246 208.646h-1841.897c34.805-65.338 64.102-137.484 87.188-210.768-457.193-91.004-490.176-707.243-55.136-851.924 35.215-255.434 147.011-480.58 306.621-641.531-182.051-51.223-351.914-167.842-446.074-314.73 24.141-27.727 47.344-58.125 68.848-90.498 88.301 128.449 199.863 231.41 327.422 316.676 10.137 6.773 23.379 6.721 33.457-.129 10.079-6.85 15-19.131 12.422-31.049-43.3-201.129-135.293-362.895-274.042-486.744 5.604-52.939-56.556-54.701-66.732 9.013-64.427 175.457-229.895 372.417-364.351 389.812-117.156 16.028-111.971-171.776-104.845-253.939 11.324-103.291 35.87-189.216 79.388-279.577 97.322-198.452 282.483-323.029 467.523-188.877 259.098 192.914 374.538 521.915 399.584 818.908 106.758-73.506 227.403-122.021 356.133-138.738-25.958-50.865-35.684-87.018-84.317-120.416 50.273-21.445 94.571-13.025 136.406 8.021 4.043-67.324-3.164-130.869-16.055-192.533 96.328 76.037 159.023 180.434 161.895 304.611 129.234 16.315 251.349 65.158 358.591 139.069zm-13.477 1154.367c201.82 113.037 231.122 152.267 248.804 96.656 1.849-31.742-28.326-33.516-53.658-51.649-47.161-27.225-123.524-71.313-153.391-88.556-48.59-34.997-74.065 24.586-41.755 43.549zm-914.999-50.742c-208.258 123.376-237.658 121.048-213.094 162.342 26.321 26.623 47.099-2.287 67.081-10.378 28.829-16.648 73.354-42.355 110.422-63.757 41.81-24.435 60.516-34.306 68.809-40.171 28.659-25.148-3.955-64.605-33.218-48.036zm501.445-163.125c63.375-53.455 99.437-110.05 114.022-164.207 3.643-16.896 15.305-44.931-7.597-59.335-50.629-19.679-99.269-25.502-150.049-24.389-46.63 2.233-142.527 12.951-146.867 39.842-8.005 65.034 65.132 153.329 131.897 208.153-.035-.022.025 66.917 0 98.848 7.489 112.548-88.213 198.749-199.766 174.323-106.97-25.46-155.918-146.011-103.555-238.301 10.327-20.84-9.797-45.737-32.664-40.703-42.12 10.607-51.533 123.339-45.264 149.701 31.488 212.75 304.408 261.535 410.546 81.336 107.756 179.882 369.437 129.661 408.73-69.735 14.045-61.448-14.228-156.692-41.268-160.762-29.732-7.477-47.167 24.685-31.107 47.337 36.196 70.974 13.92 153.531-42.594 199.222-130.338 97.152-278.104-14.397-264.462-146.305-.002-33.163-.002-94.899-.002-95.025zm-486.797 64.793h-157.617c-16.172 0-29.297 13.131-29.297 29.297 0 16.172 13.125 29.297 29.297 29.297h157.617c16.172 0 29.297-13.125 29.297-29.297 0-16.166-13.125-29.297-29.297-29.297zm915 58.593h157.617c16.172 0 29.297-13.125 29.297-29.297 0-16.166-13.125-29.297-29.297-29.297h-157.617c-16.172 0-29.297 13.131-29.297 29.297 0 16.172 13.125 29.297 29.297 29.297zm-900.351-149.074c-201.838-113.042-231.128-152.262-248.804-96.653-1.85 31.738 28.326 33.514 53.658 51.647 47.161 27.225 123.524 71.312 153.391 88.556 48.589 34.996 74.065-24.587 41.755-43.55zm914.999 50.742c208.269-123.382 237.656-121.046 213.094-162.342-26.316-26.621-47.098 2.293-67.081 10.383-28.829 16.647-73.354 42.353-110.422 63.754-41.81 24.434-60.516 34.304-68.809 40.169-28.659 25.148 3.955 64.606 33.218 48.036zm-472.148-214.64c-31.055.035-65.859 3.967-98.554 11.76 14.297 41.871 49.511 84.029 98.378 125.848 47.168-41.766 74.707-84.17 86.485-126.023-28.887-7.636-55.782-11.55-86.309-11.585zm380.039-251.877c-21.161 120.627 113.086 197.579 206.011 127.156 86.388-66.405 43.996-194.118 2.099-185.749-33.987 0-314.121 0-320.162 0-34.756.499-41.203 50.462-4.625 58.246 8.712.921 6.084.108 18.682.348 30.208-.001 97.868-.001 97.995-.001zm-875.156 0c-21.16 120.627 113.086 197.578 206.011 127.156 86.388-66.404 43.996-194.118 2.099-185.749-33.987 0-314.121 0-320.161 0-34.756.499-41.203 50.462-4.625 58.246 8.713.921 6.084.108 18.682.348 30.207-.001 97.867-.001 97.994-.001zm1068.691 0h-132.891c-31.673 128.89 166.504 122.876 132.891 0zm-875.156 0h-132.891c-31.673 128.891 166.504 122.876 132.891 0zm-588.164-934.137c-12.422 29.063-26.543 57.451-41.953 84.82 71.074 109.359 159.433 199.693 260.332 276.199-43.301-144.24-116.25-264.427-218.379-361.019zm1779.492 0c12.422 29.068 26.543 57.451 41.953 84.82-71.074 109.359-159.433 199.693-260.332 276.199 43.301-144.245 116.25-264.427 218.379-361.019z" fill-rule="evenodd"/></g></g></svg>