<svg id="Layer_1" enable-background="new 0 0 3000 3000" height="512" viewBox="0 0 3000 3000" width="512" xmlns="http://www.w3.org/2000/svg"><g transform="translate(-1124 -2810)"><g id="Icons"><path clip-rule="evenodd" d="m3080.328 3840.254c35.435-429.469 235.742-703.792 401.876-820.464 179.188-128.235 356.239-12.934 453.522 167.798 121.526 221.875 126.048 548.145 11.826 555.875-141.278 11.368-303.385-203.897-356.403-313.829-23.291-37.685-28.73-82.088-53.715-117.715-24.798-18.395-54.93 7.191-46.539 32.983-138.75 123.866-230.742 285.645-274.042 486.739-2.578 11.952 2.343 24.198 12.422 31.053 10.078 6.856 23.32 6.915 33.457.117 127.559-85.254 239.121-188.202 327.422-316.641 21.504 32.344 44.707 62.755 68.848 90.47-94.16 146.894-264.024 263.496-446.074 314.765 159.727 160.957 271.582 386.132 306.797 641.484 447.201 151.261 392.469 778.557-68.672 854.063 23.085 73.301 52.441 143.32 87.246 208.652h-1841.897c34.805-65.332 64.102-137.461 87.188-210.762-457.224-91.066-490.156-707.215-55.136-851.953 35.215-255.411 147.011-480.586 306.621-641.484-182.051-51.27-351.914-167.872-446.074-314.765 24.141-27.715 47.344-58.126 68.848-90.47 69.701 101.414 154.696 187.736 250.13 261.202 208.327 176.054 94.562-85.763 55.21-182.872-49.837-108.543-118.638-201.488-206.083-279.599 5.574-52.963-56.544-54.689-66.732 9.008-64.189 174.898-229.53 372.359-364.351 389.812-117.151 16.066-111.973-171.779-104.845-253.944 11.324-103.269 35.87-189.187 79.388-279.564 97.327-198.492 282.478-323.023 467.523-188.862 259.109 192.922 374.544 521.897 399.584 818.901 106.758-73.535 227.403-122.051 356.133-138.751-25.958-50.859-35.684-87.011-84.317-120.409 50.273-21.446 94.571-13.009 136.406 8.027 4.043-67.324-3.164-130.899-16.055-192.538 96.328 76.054 159.023 180.409 161.895 304.629 129.242 16.232 251.351 65.188 358.593 139.044zm-456.269 692.344c-44.736.59-162.281 10.207-162.4 44.445 1.05 69.644 61.546 143.545 133.045 203.759v159.316h-277.852c-44.882 0-81.27 36.445-81.27 81.269v104.004c0 44.884 36.387 81.329 81.27 81.329h245.801v168.105c0 100.488 81.562 182.051 182.05 182.051 100.489 0 182.051-81.563 182.051-182.051v-168.105c80.137-3.688 89.493-58.846 85.662-131.634-.358-64.056 6.394-91.762-39.607-123.479-34.276-18.833-56.753-9.231-101.677-11.491-81.726.002-217.756.002-217.836.002v-159.375c75.82-63.985 111.387-130.723 120.234-194.474 1.933-14.121-6.562-27.598-20.156-31.934-45.409-14.472-83.905-21.737-129.315-21.737zm91.347 602.05c-118.171 3.274-90.613 33.205-94.161 145.798.969 71.442-2.386 84.419 2.227 117.827 10.884 56.637 59.707 98.564 118.831 99.985 60.083 1.29 111.243-41.217 123.17-97.715 5.623-35.664 1.489-50.235 2.689-125.204-.243-118.722 14.033-136.859-94.162-140.691-2.319 114.143 12.839 156.424-33.826 154.222-34.962-9.527-22.337-35.533-24.77-63.468.002-37.136.002-90.637.002-90.754zm204.492 13.477c44.571 1.661 32.044-24.354 33.927-69.656-1.326-43.369 5.818-67.933-11.861-77.012-8.341-3.792-11.724-2.458-11.225-2.746-21.918.131-611.996-.235-616.206.118-32.634 6.086-16.794 41.402-20.36 86.338-2.564 58.231 4.577 62.877 29.088 62.959h246.248c27.094-73.682 108.396-72.018 181.759-72.294 70.303.292 143.144 3.179 168.63 72.293zm144.844-153.515c208.379 117.026 226.021 147.547 247.919 101.174 6.873-34.807-26.202-37.36-44.39-51.343-31.144-17.976-79.76-46.04-117.83-68.016-38.029-21.659-51.072-30.114-60.706-34.601-36.108-12.244-53.974 35.724-24.993 52.786zm-910.781-50.743c-208.344 123.436-237.674 121.097-213.138 162.36 26.366 26.616 47.122-2.28 67.125-10.385 28.829-16.649 73.353-42.359 110.422-63.763 41.81-24.437 60.516-34.31 68.809-40.175 28.659-25.15-3.955-64.605-33.218-48.037zm14.649-98.321h-157.676c-16.172 0-29.297 13.125-29.297 29.297s13.125 29.297 29.297 29.297h157.676c16.172 0 29.297-13.125 29.297-29.297s-13.126-29.297-29.297-29.297zm910.78 58.594h157.676c16.172 0 29.297-13.125 29.297-29.297s-13.125-29.297-29.297-29.297h-157.676c-16.172 0-29.297 13.125-29.297 29.297s13.126 29.297 29.297 29.297zm14.649-98.319c202.268-120.141 244.086-122.934 209.915-165.708-26.804-20.594-45.079 6.522-73.317 19.197-43.864 25.324-112.968 65.215-146.492 84.567-67.782 30.124-19.289 80.226 9.894 61.944zm-910.781-50.743c-210.9-118.643-223.696-145.33-247.185-103.39-9.849 36.123 25.544 39.611 42.576 52.904 28.832 16.646 73.356 42.355 110.424 63.76 42.065 23.995 59.967 35.261 69.192 39.511 36.108 12.245 53.974-35.724 24.993-52.785zm440.742-163.887c-31.055 0-65.859 3.925-98.554 11.719 14.297 41.894 49.511 84.083 98.378 125.859 47.168-41.777 74.707-84.14 86.485-126.035-28.887-7.617-55.782-11.543-86.309-11.543zm440.918-351.151c-177.712 8.659-172.705 257.615 0 263.965 177.574-8.655 172.693-257.662 0-263.965zm-955.195 203.144c2.341-78.15 134.009-96.936 184.254-40.6 26.942 25.537 3.535 71.957 50.139 69.548 81.302-24.45-38.39-219.391-210.035-144.855-51.565 23.107-89.229 74.478-81.594 124.747 11.642 33.581 57.096 22.455 57.236-8.84zm955.195-144.551c99.738 5.261 94.886 143.742 0 146.777-99.753-5.272-95.021-143.701 0-146.777zm-1330.664-893.496c-12.422 29.062-26.543 57.479-41.953 84.844 71.074 109.335 159.433 199.687 260.332 276.21-43.301-144.257-116.25-264.433-218.379-361.054zm1779.492 0c12.422 29.062 26.543 57.479 41.953 84.844-71.074 109.335-159.433 199.687-260.332 276.21 43.301-144.257 116.25-264.433 218.379-361.054z" fill-rule="evenodd"/></g></g></svg>