<svg id="Layer_1" enable-background="new 0 0 3000 3000" height="512" viewBox="0 0 3000 3000" width="512" xmlns="http://www.w3.org/2000/svg"><g transform="translate(-562 -2810)"><g id="Icons"><path clip-rule="evenodd" d="m2518.34 3840.254c35.241-426.751 233.016-700.358 399.57-818.905 177.292-128.433 352.544-19.376 451.741 158.821 125.441 221.87 133.584 563.148 10.395 563.902-145.529 3.264-305.62-214.611-357.957-328.714-19.917-33.264-23.592-72.745-46.657-103.439-24.773-18.356-54.939 7.079-46.542 32.983-138.767 123.866-230.76 285.645-274.06 486.739-2.567 11.952 2.35 24.198 12.433 31.053 10.084 6.856 23.314 6.915 33.451.117 127.6-85.254 239.109-188.202 327.422-316.641 21.504 32.344 44.713 62.755 68.883 90.47-94.201 146.894-264.064 263.496-446.092 314.765 159.715 160.957 271.564 386.132 306.779 641.484 447.22 151.247 392.483 778.544-68.625 854.063 23.08 73.301 52.394 143.32 87.187 208.652h-1841.842c34.793-65.332 64.108-137.461 87.188-210.762-457.227-91.014-490.203-707.235-55.137-851.953 35.174-255.411 146.959-480.586 306.598-641.484-182.027-51.27-351.891-167.872-446.092-314.765 24.17-27.715 47.379-58.126 68.883-90.47 69.71 101.414 154.674 187.736 250.116 261.202 208.346 176.048 94.585-85.762 55.23-182.872-49.839-108.543-118.643-201.488-206.099-279.599 5.884-53.071-56.797-53.417-65.597 6.03-64.151 176.869-230.447 375.344-365.486 392.791-117.158 16.064-111.948-171.763-104.84-253.944 11.307-103.269 35.861-189.187 79.381-279.564 97.321-198.503 282.463-323.024 467.52-188.862 259.026 192.852 374.578 521.922 399.565 818.901 106.764-73.535 227.414-122.051 356.156-138.751-25.986-50.859-35.678-87.011-84.322-120.409 50.285-21.446 94.594-13.009 136.377 8.027 4.096-67.324-3.146-130.899-16.043-192.538 96.323 76.054 159.059 180.409 161.93 304.629 129.226 16.242 251.337 65.189 358.586 139.043zm-456.311 692.344c-44.67.59-162.291 10.206-162.372 44.445 1.097 69.717 61.472 143.489 133.046 203.759v153.457c-288.3 1.988-305.012-11.3-339.848 28.745-18.184 20.028-20.134 48.552-19.29 59.917.254 33.176-.616 97.885.546 106.089 15.27 102.579 136.644 65.239 205.838 71.851v168.105c0 100.488 81.574 182.051 182.051 182.051s182.051-81.563 182.051-182.051v-168.105c97.632-3.627 199.008 24.942 206.385-82.599-3.295-60.9 14.924-135.586-32.223-167.503-35.836-25.442-62.913-14.026-107.347-16.502-81.513.002-219.489.002-219.569.002v-153.515c75.838-63.985 111.357-130.723 120.205-194.474 1.957-14.121-6.539-27.598-20.127-31.934-45.439-14.473-83.906-21.738-129.346-21.738zm29.268 596.191c-2.318 114.136 12.838 156.422-33.826 154.222-34.962-9.527-22.337-35.533-24.77-63.468.002-37.137.002-90.637.002-90.754-118.167 3.271-90.614 33.23-94.161 145.798.97 71.442-2.387 84.419 2.227 117.827 10.885 56.637 59.712 98.564 118.831 99.985 60.077 1.29 111.241-41.217 123.169-97.715 5.624-35.664 1.49-50.235 2.689-125.204-.242-118.704 14.031-136.855-94.161-140.691zm145.916 13.477c172.932-2.706 153.734 19.372 154.629-73.042 2.443-106.133 3.767-70.145-163.201-76.375-465.762 1.914-484.786-6.689-492.603 10.019-8.569 16.32-1.916 35.627-3.883 79.728-4.121 85.309 10.646 53.888 154.632 59.67 27.146-73.668 108.391-72.022 181.779-72.294 70.316.289 143.11 3.192 168.647 72.294zm265.553-147.656c201.84 113.056 231.131 152.282 248.809 96.67 1.85-31.738-28.326-33.516-53.658-51.651-47.163-27.229-123.527-71.323-153.395-88.569-48.587-34.997-74.069 24.584-41.756 43.55zm-910.828-50.743c-198.818 118.289-247.436 124.049-208.111 167.159 26.562 17.471 43.186-7.774 71.557-20.648 47.16-27.234 123.525-71.328 153.392-88.574 54.603-24.586 15.74-76.437-16.838-57.937zm14.648-98.321h-157.652c-16.172 0-29.297 13.125-29.297 29.297s13.125 29.297 29.297 29.297h157.652c16.166 0 29.297-13.125 29.297-29.297s-13.131-29.297-29.297-29.297zm910.828 58.594h157.652c16.172 0 29.297-13.125 29.297-29.297s-13.125-29.297-29.297-29.297h-157.652c-16.166 0-29.297 13.125-29.297 29.297s13.131 29.297 29.297 29.297zm14.649-98.319c198.821-118.292 247.435-124.05 208.111-167.159-26.562-17.471-43.186 7.775-71.557 20.649-47.16 27.234-123.525 71.328-153.392 88.573-54.604 24.585-15.741 76.437 16.838 57.937zm-910.829-50.743c-201.839-113.056-231.131-152.282-248.809-96.67-1.85 31.736 28.326 33.514 53.659 51.649 47.163 27.229 123.527 71.324 153.395 88.57 48.587 34.998 74.068-24.584 41.755-43.549zm440.766-163.887c-31.055 0-65.865 3.925-98.525 11.719 14.291 41.894 49.453 84.083 98.361 125.859 47.145-41.777 74.684-84.14 86.479-126.035-28.917-7.617-55.782-11.543-86.315-11.543zm-517.002-255.176 108.041 56.016c-.063-.003-76.354 39.613-100.726 52.223-8.484 4.635-2.483.745-11.355 6.319-28.853 22.861-.778 62.794 28.834 50.523 3.984-.882 155.091-80.963 160.363-83.039 53.535-45.787-32.294-64.365-101.62-104.743-29.336-15.21-54.024-28.011-56.393-29.24-34.034-16.585-61.475 31.31-27.144 51.941zm1007.033-52.03c.026-.008-158.163 82.006-158.203 82.031-47.554 40.43 18.674 60.379 45.127 75.429 76.24 34.604 140.929 94.205 155.505 37.19 1.766-32.53-22.247-31.212-45.28-46.051-32.03-16.604-78.114-40.497-78.22-40.552 4.318-2.402 105.425-54.408 110.125-57.206 32.641-22.572 2.193-66.54-29.054-50.841zm-1379.801-878.848c-12.404 29.062-26.502 57.479-41.93 84.844 71.068 109.335 159.416 199.687 260.332 276.21-43.288-144.257-116.267-264.433-218.402-361.054zm1779.54 0c12.404 29.062 26.508 57.479 41.93 84.844-71.068 109.335-159.416 199.687-260.332 276.21 43.294-144.257 116.267-264.433 218.402-361.054z" fill-rule="evenodd"/></g></g></svg>