<svg id="Layer_1" enable-background="new 0 0 3000 3000" height="512" viewBox="0 0 3000 3000" width="512" xmlns="http://www.w3.org/2000/svg"><g transform="translate(-562 -1124)"><g id="Icons"><path clip-rule="evenodd" d="m2525.928 2093.727c23.89-285.797 176.513-594.962 375.961-746.924 226.564-177.31 437.412 24.739 518.897 261.4 72.859 200.227 99.615 616.857-200.258 379.841-121.632-100.202-190.801-228.395-240.293-357.588-22.937-25.989-60.619-.672-51.347 28.446-138.767 123.867-230.76 285.645-274.06 486.738-2.567 11.953 2.35 24.199 12.433 31.055 10.084 6.855 23.314 6.914 33.451.117 127.6-85.254 239.109-188.203 327.422-316.641 21.504 32.344 44.713 62.754 68.883 90.468-94.201 146.895-264.064 263.497-446.092 314.766 159.715 160.957 271.564 386.132 306.779 641.484 447.221 151.246 392.482 778.545-68.625 854.063 23.08 73.301 52.394 143.32 87.187 208.652h-1841.84c34.793-65.332 64.108-137.461 87.188-210.762-457.226-91.016-490.204-707.235-55.137-851.953 35.174-255.411 146.959-480.528 306.598-641.484-182.027-51.27-351.891-167.871-446.092-314.766 24.17-27.715 47.379-58.125 68.883-90.468 69.71 101.413 154.674 187.736 250.116 261.201 208.347 176.047 94.585-85.763 55.23-182.872-49.839-108.543-118.643-201.487-206.099-279.599 5.633-52.902-56.54-54.757-66.719 9.008-63.981 174.31-229.16 372.263-364.364 389.812-117.151 16.065-111.949-171.74-104.84-253.925 11.308-103.311 35.86-189.196 79.381-279.583 97.321-198.502 282.463-323.023 467.52-188.861 259.026 192.852 374.577 521.921 399.565 818.901 106.764-73.535 227.414-122.051 356.156-138.75-25.986-50.86-35.678-87.012-84.322-120.41 50.285-21.446 94.594-13.008 136.377 8.027 4.096-67.324-3.146-130.898-16.043-192.539 96.323 76.055 159.059 180.41 161.93 304.629 31.471 3.889 65.022 10.378 96.035 18.34-105.158 171.747 30.707 283.445 137.78 271.605 99.483-9.357 171.583-114.417 132.359-211.428zm-463.899 752.871c-44.707.66-162.274 10.176-162.372 44.445 1.097 69.717 61.472 143.489 133.046 203.758v128.379c-112.066 10.43-207.07 79.981-253.447 177.129-6.967 14.59-.774 32.109 13.822 39.082 14.59 6.972 32.092.762 39.059-13.828 40.951-85.781 128.531-145.137 229.863-145.137s188.912 59.355 229.863 145.137c6.967 14.59 24.469 20.8 39.059 13.828 14.596-6.973 20.789-24.492 13.822-39.082-46.377-97.148-141.381-166.699-253.447-177.129v-128.438c75.838-63.984 111.357-130.722 120.205-194.472 1.957-14.121-6.539-27.598-20.127-31.934-45.439-14.473-83.906-21.68-129.346-21.738zm401.79 462.011c201.839 113.06 231.128 152.283 248.803 96.671 1.85-31.737-28.325-33.515-53.657-51.65-47.161-27.229-123.524-71.323-153.391-88.569-48.589-34.999-74.067 24.585-41.755 43.548zm-832.934-50.742c-198.826 118.296-247.422 124.046-208.108 167.158 26.563 17.472 43.189-7.775 71.558-20.649 47.159-27.234 123.521-71.328 153.388-88.574 54.604-24.585 15.738-76.436-16.838-57.935zm14.648-98.32h-157.652c-16.166 0-29.297 13.125-29.297 29.297s13.131 29.297 29.297 29.297h157.652c16.172 0 29.297-13.125 29.297-29.297s-13.125-29.297-29.297-29.297zm832.934 58.594h157.652c16.166 0 29.297-13.125 29.297-29.297s-13.131-29.297-29.297-29.297h-157.652c-16.172 0-29.297 13.125-29.297 29.297s13.125 29.297 29.297 29.297zm-818.285-149.063c-201.838-113.059-231.129-152.282-248.803-96.671-1.85 31.738 28.325 33.515 53.657 51.65 47.161 27.229 123.524 71.323 153.391 88.569 48.588 35 74.066-24.584 41.755-43.548zm832.933 50.742c198.825-118.295 247.422-124.046 208.108-167.159-26.563-17.472-43.189 7.776-71.558 20.649-47.158 27.234-123.521 71.328-153.388 88.573-54.604 24.587-15.738 76.439 16.838 57.937zm-431.115-214.629c-31.055 0-65.865 3.926-98.525 11.719 14.291 41.895 49.453 84.082 98.361 125.859 47.145-41.777 74.684-84.14 86.479-126.035-28.917-7.617-55.782-11.543-86.315-11.543zm-539.068-283.594c.719 111.17 118.168 177.232 212.428 126.352 98.535-52.676 91.745-197.202 22.992-144.674-4.706 5.922-6.513 12.297-6.469 20.702-3.39 81.042-100.454 109.378-149.185 53.793-27.122-29.41-16.541-59.869-26.329-72.773-17.432-24.835-53.542-10.289-53.437 16.6zm811.746 0c.718 111.169 118.168 177.232 212.427 126.352 98.524-52.67 91.745-197.203 22.99-144.674-4.707 5.922-6.515 12.296-6.471 20.702-3.392 81.044-100.449 109.377-149.179 53.793-27.122-29.41-16.542-59.869-26.329-72.773-17.434-24.836-53.546-10.289-53.438 16.6zm42.222-708.281s125.08 163.418 125.08 232.442-56.045 125.098-125.08 125.098-125.086-56.074-125.086-125.098 125.086-232.442 125.086-232.442zm-1204.67-194.18c-12.404 29.063-26.502 57.481-41.93 84.844 71.068 109.335 159.416 199.687 260.332 276.21-43.288-144.257-116.267-264.432-218.402-361.054zm1779.54 0c12.404 29.122 26.508 57.481 41.93 84.844-71.068 109.335-159.416 199.687-260.332 276.21 43.294-144.257 116.267-264.432 218.402-361.054z" fill-rule="evenodd"/></g></g></svg>