<svg id="Layer_1" enable-background="new 0 0 3000 3000" height="512" viewBox="0 0 3000 3000" width="512" xmlns="http://www.w3.org/2000/svg"><g transform="translate(-562 -2248)"><g id="Icons"><path clip-rule="evenodd" d="m2518.34 3278.254c35.241-426.751 233.016-700.358 399.57-818.905 177.292-128.433 352.544-19.376 451.741 158.821 125.441 221.87 133.584 563.148 10.395 563.902-145.529 3.264-305.62-214.611-357.957-328.714-19.917-33.264-23.592-72.745-46.657-103.439-24.773-18.356-54.939 7.079-46.542 32.983-138.767 123.866-230.76 285.645-274.06 486.739-2.567 11.952 2.35 24.198 12.433 31.053 10.084 6.856 23.314 6.915 33.451.117 127.6-85.254 239.109-188.202 327.422-316.641 21.504 32.344 44.713 62.755 68.883 90.47-94.201 146.894-264.064 263.496-446.092 314.765 159.715 160.957 271.564 386.132 306.779 641.484 447.22 151.246 392.483 778.544-68.625 854.062 23.08 73.301 52.394 143.32 87.187 208.652h-1841.842c34.793-65.332 64.108-137.461 87.188-210.762-457.227-91.014-490.203-707.235-55.137-851.952 35.174-255.411 146.959-480.586 306.598-641.484-182.027-51.27-351.891-167.872-446.092-314.765 24.17-27.715 47.379-58.126 68.883-90.47 69.71 101.414 154.674 187.736 250.116 261.202 208.346 176.048 94.585-85.762 55.23-182.872-49.839-108.543-118.643-201.488-206.099-279.599 5.884-53.071-56.797-53.417-65.597 6.03-64.151 176.869-230.447 375.344-365.486 392.791-117.158 16.064-111.948-171.763-104.84-253.944 11.307-103.269 35.861-189.187 79.381-279.564 97.321-198.503 282.463-323.024 467.52-188.862 259.026 192.852 374.578 521.922 399.565 818.901 106.764-73.535 227.414-122.051 356.156-138.751-25.986-50.859-35.678-87.011-84.322-120.409 50.285-21.446 94.594-13.009 136.377 8.027 4.096-67.324-3.146-130.899-16.043-192.538 96.323 76.054 159.059 180.409 161.93 304.629 129.226 16.242 251.337 65.189 358.586 139.043zm-456.311 692.344c-44.67.59-162.291 10.206-162.372 44.445 1.097 69.717 61.472 143.489 133.046 203.759v146.776c-239.116 37.94-221.001 371.545 15.939 387.642 244.892-.748 274.509-336.048 42.654-385.767v-148.71c75.838-63.985 111.357-130.723 120.205-194.474 1.957-14.121-6.539-27.597-20.127-31.933-45.438-14.473-83.905-21.738-129.345-21.738zm-13.898 452.402c-173.271 17.386-167.476 257.523.53 271.57 177.269 1.44 193.417-242.94 25.24-270.573-6.601 3.026-17.565 3.664-25.77-.997zm454.635 9.61c201.84 113.056 231.131 152.282 248.809 96.67 1.85-31.738-28.326-33.516-53.658-51.651-47.163-27.229-123.527-71.323-153.395-88.569-48.587-34.997-74.069 24.584-41.756 43.55zm-910.828-50.743c-198.818 118.289-247.436 124.049-208.111 167.159 26.562 17.471 43.186-7.774 71.557-20.648 47.16-27.234 123.525-71.328 153.392-88.574 54.603-24.586 15.74-76.437-16.838-57.937zm624.199-125.038h56.789c.034-.012-81.371 81.384-81.416 81.445-28.677 43.733 19.97 53.832 43.854 49.978 34.22.003 95.188.003 106.501.003 45.875-1.612 39.776-66.396-11.04-58.592-17.909-.002-47.651-.002-47.874-.002 6.921-8.127 85.061-82.204 87.133-89.464 14.553-52.953-39.888-40.651-79.98-41.96-34.382 0-72.593 0-73.937 0-39.383 1.789-38.198 57.083-.03 58.592zm-609.551 26.717h-157.652c-16.172 0-29.297 13.125-29.297 29.297s13.125 29.297 29.297 29.297h157.652c16.166 0 29.297-13.125 29.297-29.297s-13.131-29.297-29.297-29.297zm910.828 58.594h157.652c16.172 0 29.297-13.125 29.297-29.297s-13.125-29.297-29.297-29.297h-157.652c-16.166 0-29.297 13.125-29.297 29.297s13.131 29.297 29.297 29.297zm14.649-98.319c198.821-118.292 247.435-124.05 208.111-167.159-26.562-17.471-43.186 7.775-71.557 20.649-47.16 27.234-123.525 71.328-153.392 88.573-54.604 24.585-15.741 76.437 16.838 57.937zm-910.829-50.743c-201.839-113.056-231.131-152.282-248.809-96.67-1.85 31.736 28.326 33.514 53.659 51.649 47.163 27.229 123.527 71.324 153.395 88.57 48.587 34.998 74.068-24.584 41.755-43.549zm440.766-163.887c-31.055 0-65.865 3.925-98.525 11.719 14.291 41.894 49.453 84.083 98.361 125.859 47.145-41.777 74.684-84.14 86.479-126.035-28.917-7.617-55.782-11.543-86.315-11.543zm306.264 5.977h56.789c.034-.011-81.372 81.384-81.416 81.445-28.593 43.412 19.723 53.938 42.883 50.036 33.547.003 94.331.003 106.973.003 45.415-.58 41.526-66.167-10.539-58.592-17.907-.002-47.646-.002-47.869-.002 6.916-8.125 85.067-82.272 87.133-89.521 14.551-52.957-39.891-40.651-79.985-41.962-33.82 0-71.336 0-73.847 0-38.483 1.332-39.364 56.531-.122 58.593zm-866.895-287.168c.718 111.169 118.168 177.232 212.424 126.352 98.527-52.672 91.748-197.202 22.992-144.674-4.707 5.924-6.515 12.292-6.47 20.705-3.373 81.093-100.478 109.336-149.179 53.814-27.124-29.4-16.537-59.885-26.331-72.797-17.435-24.836-53.543-10.29-53.436 16.6zm833.69 0c.72 111.171 118.165 177.231 212.422 126.352 98.531-52.671 91.749-197.202 22.994-144.674-4.707 5.924-6.515 12.292-6.47 20.705-3.371 81.088-100.48 109.338-149.18 53.814-27.123-29.4-16.537-59.885-26.33-72.797-17.436-24.836-53.543-10.29-53.436 16.6zm-1162.829-904.863c-12.404 29.062-26.502 57.479-41.93 84.844 71.068 109.335 159.416 199.687 260.332 276.21-43.288-144.257-116.267-264.433-218.402-361.054zm1779.54 0c12.404 29.062 26.508 57.479 41.93 84.844-71.068 109.335-159.416 199.687-260.332 276.21 43.294-144.257 116.267-264.433 218.402-361.054z" fill-rule="evenodd"/></g></g></svg>