<svg id="Layer_1" enable-background="new 0 0 3000 3000" height="512" viewBox="0 0 3000 3000" width="512" xmlns="http://www.w3.org/2000/svg"><g transform="translate(-1124 -2248)"><g id="Icons"><path clip-rule="evenodd" d="m3080.328 3278.254c35.435-429.469 235.742-703.792 401.876-820.464 179.188-128.235 356.239-12.934 453.522 167.798 121.526 221.875 126.048 548.145 11.826 555.875-141.278 11.368-303.385-203.897-356.403-313.829-23.291-37.685-28.73-82.088-53.715-117.715-24.798-18.395-54.93 7.191-46.539 32.983-138.75 123.866-230.742 285.645-274.042 486.739-2.578 11.952 2.343 24.198 12.422 31.053 10.078 6.856 23.32 6.915 33.457.117 127.559-85.254 239.121-188.202 327.422-316.641 21.504 32.344 44.707 62.755 68.848 90.47-94.16 146.894-264.024 263.496-446.074 314.765 159.727 160.957 271.582 386.132 306.797 641.484 447.201 151.261 392.469 778.556-68.672 854.062 23.085 73.301 52.441 143.32 87.246 208.652h-1841.897c34.805-65.332 64.102-137.461 87.188-210.762-457.224-91.066-490.156-707.215-55.136-851.952 35.215-255.411 147.011-480.586 306.621-641.484-182.051-51.27-351.914-167.872-446.074-314.765 24.141-27.715 47.344-58.126 68.848-90.47 69.701 101.414 154.696 187.736 250.13 261.202 208.327 176.054 94.562-85.763 55.21-182.872-49.837-108.543-118.638-201.488-206.083-279.599 5.574-52.963-56.544-54.689-66.732 9.008-64.189 174.898-229.53 372.359-364.351 389.812-117.151 16.066-111.973-171.779-104.845-253.944 11.324-103.269 35.87-189.187 79.388-279.564 97.327-198.492 282.478-323.023 467.523-188.862 259.109 192.922 374.544 521.897 399.584 818.901 106.758-73.535 227.403-122.051 356.133-138.751-25.958-50.859-35.684-87.011-84.317-120.409 50.273-21.446 94.571-13.009 136.406 8.027 4.043-67.324-3.164-130.899-16.055-192.538 96.328 76.054 159.023 180.409 161.895 304.629 129.242 16.232 251.351 65.188 358.593 139.044zm-456.269 692.344c-44.736.59-162.281 10.207-162.4 44.445 1.05 69.644 61.546 143.545 133.045 203.759v153.105h-243.047c-62.168 0-112.617 50.45-112.617 112.617 0 62.11 50.449 112.559 112.617 112.559h544.688c62.168 0 112.617-50.448 112.617-112.559 0-62.167-50.449-112.617-112.617-112.617h-243.047v-153.164c75.82-63.985 111.387-130.723 120.234-194.474 1.933-14.121-6.562-27.597-20.156-31.933-45.411-14.473-83.907-21.738-129.317-21.738zm440.683 462.012c208.379 117.026 226.021 147.547 247.919 101.174 6.873-34.807-26.202-37.36-44.39-51.343-31.144-17.976-79.76-46.04-117.83-68.016-38.029-21.659-51.072-30.114-60.706-34.601-36.108-12.244-53.974 35.724-24.993 52.786zm-910.781-50.743c-208.344 123.436-237.674 121.097-213.138 162.36 26.366 26.616 47.122-2.28 67.125-10.385 28.829-16.649 73.353-42.359 110.422-63.763 41.81-24.437 60.516-34.31 68.809-40.175 28.659-25.15-3.955-64.605-33.218-48.037zm796.406 102.656c-5.606 80.488-99.483 47.457-200.104 53.968-380.052-1.816-416.672 7.541-434.351-13.522-31.656-27.841-19.271-76.806 15.247-90.441 32.601-9.428 123.426-1.633 280.589-4.032 289.568 3.887 329.546-20.923 338.619 54.027zm-781.757-200.977h-157.676c-16.172 0-29.297 13.125-29.297 29.297s13.125 29.297 29.297 29.297h157.676c16.172 0 29.297-13.125 29.297-29.297s-13.126-29.297-29.297-29.297zm910.78 58.594h157.676c16.172 0 29.297-13.125 29.297-29.297s-13.125-29.297-29.297-29.297h-157.676c-16.172 0-29.297 13.125-29.297 29.297s13.126 29.297 29.297 29.297zm-320.8-210.527c-45.763 5.891-25.631 49.029-21.022 51.333 21.337 33.468 95.647 132.898 132.489 148.378 63.385 32.928 136.043-12.927 138.796-80.698 5.061-129.133-200.547-112.902-250.263-119.013zm58.184 61.7c201.653 9.63 121.206 89.449 106.124 88.955-38.542 12.683-91.335-73.174-106.124-88.955zm277.265 50.508c202.268-120.141 244.086-122.934 209.915-165.707-26.804-20.594-45.079 6.522-73.317 19.197-43.864 25.324-112.968 65.215-146.492 84.567-67.782 30.123-19.289 80.225 9.894 61.943zm-910.781-50.743c-210.9-118.643-223.696-145.33-247.185-103.39-9.849 36.123 25.544 39.611 42.576 52.904 28.832 16.646 73.356 42.355 110.424 63.76 42.065 23.995 59.967 35.261 69.192 39.511 36.108 12.245 53.974-35.724 24.993-52.785zm440.742-163.887c-31.055 0-65.859 3.925-98.554 11.719 14.297 41.894 49.511 84.083 98.378 125.859 47.168-41.777 74.707-84.14 86.485-126.035-28.887-7.617-55.782-11.543-86.309-11.543zm-482.578-214.453c.724 111.168 118.182 177.232 212.443 126.352 98.511-52.66 91.734-197.207 22.977-144.674-4.706 5.924-6.513 12.293-6.469 20.705-3.361 81.091-100.46 109.338-149.175 53.814-27.135-29.406-16.547-59.88-26.339-72.797-17.432-24.836-53.545-10.29-53.437 16.6zm697.266 0c.724 111.167 118.184 177.231 212.417 126.352 98.544-52.681 91.759-197.201 23.003-144.674-4.706 5.924-6.513 12.292-6.469 20.705-3.382 81.091-100.505 109.336-149.195 53.814-27.111-29.394-16.529-59.886-26.319-72.797-17.433-24.836-53.545-10.29-53.437 16.6zm-507.012-212.871c-268.365-26.397-461.223 186.419-359.277 197.951 36.675-2.395 48.955-75.504 169-116.811 57.168-21.192 122.521-27.533 190.411-22.727 37.95-4.537 33.282-55.493-.134-58.413zm589.277 58.418c137.05-10.782 260.214 33.398 330.879 127.793 9.668 12.949 28.066 15.585 41.016 5.918 12.949-9.727 15.586-28.067 5.918-41.016-81.973-109.454-223.594-163.595-382.442-151.114-16.113 1.289-28.125 15.351-26.894 31.523 1.289 16.115 15.41 28.185 31.523 26.896zm-1186.699-817.148c-12.422 29.062-26.543 57.479-41.953 84.844 71.074 109.335 159.433 199.687 260.332 276.21-43.301-144.257-116.25-264.433-218.379-361.054zm1779.492 0c12.422 29.062 26.543 57.479 41.953 84.844-71.074 109.335-159.433 199.687-260.332 276.21 43.301-144.257 116.25-264.433 218.379-361.054z" fill-rule="evenodd"/></g></g></svg>