<svg id="Layer_1" enable-background="new 0 0 3000 3000" height="512" viewBox="0 0 3000 3000" width="512" xmlns="http://www.w3.org/2000/svg"><g id="Icons"><path clip-rule="evenodd" d="m1956.34 1030.26c35.405-429.36 235.724-703.811 401.863-820.483 179.193-128.227 356.251-12.891 453.52 167.816 121.422 221.578 126.122 548.075 11.832 555.874-141.228 11.41-303.45-203.986-356.4-313.818-23.282-37.689-28.766-82.095-53.723-117.726-24.773-18.364-54.952 7.139-46.543 32.984-138.768 123.85-230.76 285.615-274.061 486.744-2.566 11.918 2.35 24.199 12.434 31.049s23.314 6.902 33.451.129c127.6-85.266 239.109-188.227 327.422-316.676 21.504 32.373 44.713 62.772 68.883 90.498-94.201 146.889-264.064 263.508-446.092 314.73 159.715 160.998 271.564 386.15 306.779 641.531 447.243 151.178 392.437 778.576-68.625 854.045 23.08 73.283 52.395 143.309 87.188 208.646h-1841.842c34.793-65.338 64.107-137.484 87.188-210.768-457.225-90.97-490.198-707.279-55.137-851.924 35.174-255.434 146.959-480.58 306.598-641.531-182.027-51.223-351.891-167.842-446.092-314.73 24.17-27.727 47.379-58.125 68.883-90.498 88.313 128.449 199.822 231.41 327.422 316.676 10.137 6.773 23.367 6.721 33.451-.129s15-19.131 12.434-31.049c-43.301-201.129-135.293-362.895-274.061-486.744 5.637-52.891-56.553-54.755-66.719 9.013-64.217 174.867-229.528 372.324-364.364 389.812-117.164 16.027-111.947-171.758-104.841-253.937 11.307-103.291 35.861-189.216 79.381-279.577 97.317-198.463 282.468-323.03 467.52-188.877 259.015 192.845 374.571 521.939 399.565 818.908 106.764-73.506 227.414-122.021 356.156-138.738-25.986-50.865-35.678-87.018-84.322-120.416 50.285-21.445 94.594-13.025 136.377 8.021 4.096-67.324-3.146-130.869-16.043-192.533 96.322 76.037 159.059 180.434 161.93 304.611 129.222 16.324 251.34 65.158 358.588 139.067zm-928.471 1103.625c-208.278 123.387-237.65 121.045-213.095 162.342 26.317 26.624 47.103-2.288 67.082-10.378 28.829-16.648 73.354-42.355 110.422-63.757 41.81-24.435 60.516-34.306 68.809-40.171 28.66-25.148-3.955-64.605-33.218-48.036zm914.965 50.742c201.824 113.04 231.125 152.267 248.803 96.656 1.849-31.742-28.325-33.516-53.657-51.649-47.161-27.225-123.524-71.313-153.391-88.556-48.59-34.997-74.066 24.586-41.755 43.549zm-442.805-462.047c-44.688.656-162.307 10.218-162.372 44.459 1.093 69.7 61.475 143.514 133.046 203.785-.035-.022.025 66.917 0 98.848 7.489 112.553-88.21 198.747-199.767 174.323-105.99-24.974-155.434-144.797-104.633-236.153 11.725-20.427-6.162-46.364-29.354-43.224-42.958 5.871-53.464 120.426-48.075 145.38 27.35 215.905 303.837 268.114 411.126 86.031 107.727 179.879 369.431 129.664 408.752-69.735 14.044-61.454-14.206-156.697-41.297-160.762-29.741-7.466-47.18 24.67-31.094 47.337 36.222 70.985 13.939 153.517-42.597 199.222-130.345 97.15-278.107-14.395-264.464-146.305-.003-33.163-.003-94.9-.003-95.026 75.838-64.014 111.357-130.74 120.205-194.49 1.957-14.127-6.539-27.609-20.127-31.939-45.439-14.479-83.906-21.704-129.346-21.751zm-457.511 312.973h-157.653c-16.166 0-29.297 13.131-29.297 29.297 0 16.172 13.131 29.297 29.297 29.297h157.652c16.172 0 29.297-13.125 29.297-29.297 0-16.166-13.125-29.297-29.296-29.297zm914.964 58.593h157.652c16.166 0 29.297-13.125 29.297-29.297 0-16.166-13.131-29.297-29.297-29.297h-157.652c-16.172 0-29.297 13.131-29.297 29.297.001 16.172 13.125 29.297 29.297 29.297zm-900.316-149.074c-201.843-113.045-231.13-152.262-248.803-96.653-1.85 31.738 28.325 33.514 53.657 51.647 47.161 27.225 123.524 71.312 153.391 88.556 48.59 34.996 74.066-24.586 41.755-43.55zm914.965 50.742c208.289-123.393 237.648-121.043 213.095-162.342-26.313-26.622-47.103 2.295-67.082 10.383-28.829 16.647-73.354 42.353-110.422 63.754-41.81 24.434-60.516 34.304-68.809 40.169-28.66 25.149 3.955 64.605 33.218 48.036zm-472.131-214.64c-31.055.035-65.865 3.967-98.525 11.76 14.291 41.871 49.453 84.029 98.361 125.848 47.145-41.766 74.683-84.17 86.478-126.023-28.916-7.636-55.781-11.55-86.314-11.585zm-351.439-410.08c-204.634 9.763-199.781 297.22.001 304.687 204.632-9.763 199.779-297.219-.001-304.687zm702.878 0c-204.634 9.763-199.781 297.22.001 304.687 204.633-9.763 199.78-297.219-.001-304.687zm-702.878 58.594c126.868 6.465 121.934 183.336 0 187.5-126.869-6.466-121.934-183.336 0-187.5zm702.878 0c126.868 6.465 121.934 183.336 0 187.5-126.868-6.466-121.934-183.336 0-187.5zm-1241.209-834.528c-12.404 29.063-26.502 57.451-41.93 84.82 71.069 109.36 159.417 199.694 260.333 276.2-43.289-144.241-116.268-264.428-218.403-361.02zm1779.54 0c12.404 29.068 26.508 57.451 41.93 84.82-71.068 109.359-159.416 199.693-260.332 276.199 43.294-144.245 116.267-264.427 218.402-361.019z" fill-rule="evenodd"/></g></svg>