<svg id="Layer_1" enable-background="new 0 0 3000 3000" height="512" viewBox="0 0 3000 3000" width="512" xmlns="http://www.w3.org/2000/svg"><g transform="translate(-1686 -2810)"><g id="Icons"><path clip-rule="evenodd" d="m3642.328 3840.254c35.436-429.469 235.742-703.793 401.875-820.464 179.188-128.235 356.24-12.934 453.522 167.798 121.525 221.874 126.049 548.145 11.826 555.875-141.28 11.367-303.385-203.896-356.403-313.829-23.291-37.685-28.73-82.088-53.715-117.715-24.798-18.395-54.929 7.191-46.539 32.983-138.75 123.866-230.741 285.645-274.042 486.739-2.578 11.952 2.343 24.198 12.422 31.053 10.078 6.856 23.32 6.915 33.457.117 127.559-85.254 239.122-188.202 327.421-316.641 21.505 32.344 44.708 62.755 68.848 90.47-94.159 146.894-264.022 263.496-446.074 314.765 159.727 160.957 271.583 386.132 306.798 641.484 447.192 151.254 392.458 778.532-68.615 854.063 23.028 73.301 52.384 143.32 87.129 208.652h-1841.836c34.805-65.332 64.102-137.461 87.188-210.762-457.225-91.066-490.156-707.215-55.136-851.953 35.215-255.411 147.011-480.586 306.621-641.484-182.051-51.27-351.914-167.872-446.074-314.765 24.141-27.715 47.344-58.126 68.848-90.47 69.7 101.414 154.696 187.736 250.13 261.202 208.327 176.054 94.563-85.763 55.21-182.872-49.838-108.543-118.638-201.488-206.083-279.599 5.574-52.963-56.543-54.689-66.732 9.008-64.188 174.898-229.53 372.359-364.351 389.812-117.151 16.066-111.973-171.779-104.845-253.944 11.324-103.269 35.87-189.187 79.388-279.564 97.327-198.492 282.478-323.023 467.523-188.862 259.109 192.922 374.544 521.897 399.584 818.901 106.758-73.535 227.403-122.051 356.133-138.751-25.958-50.859-35.684-87.011-84.317-120.409 50.273-21.446 94.571-13.009 136.406 8.027 4.043-67.324-3.164-130.899-16.055-192.538 96.328 76.054 159.023 180.409 161.895 304.629 129.242 16.232 251.351 65.188 358.593 139.044zm-456.269 692.344c-44.736.59-162.281 10.207-162.4 44.445 1.05 69.644 61.546 143.545 133.045 203.759-.264 5.251.659 192.92-.628 192.779-42.136 258.278-410.004 144.421-305.119-90.146 15.418-24.351-7.342-51.863-32.42-44.801-41.527 15.867-49.547 125.833-42.427 153.833 35.415 209.434 304.867 255.082 409.891 76.675 109.514 182.608 376.172 127.537 409.893-76.674 10.968-53.292-14.036-151.723-44.613-154.375-28.965-5.071-44.364 26.091-28.925 47.87 35.399 69.388 14.874 150.151-39.146 196.35-141.061 106.76-285.443-20.362-267.908-151.943-.004-50.546-.004-149.543-.004-149.626 75.82-63.985 111.387-130.723 120.234-194.474 1.933-14.121-6.562-27.598-20.156-31.934-45.411-14.473-83.907-21.738-129.317-21.738zm440.683 462.012c210.957 118.68 223.719 145.327 247.142 103.389 9.95-36.089-25.531-39.633-42.533-52.905-28.832-16.646-73.356-42.355-110.424-63.759-42.065-23.995-59.967-35.261-69.192-39.511-36.108-12.244-53.974 35.724-24.993 52.786zm-910.781-50.743c-208.344 123.436-237.674 121.097-213.138 162.36 26.366 26.616 47.122-2.28 67.125-10.385 28.83-16.649 73.354-42.359 110.422-63.763 41.81-24.437 60.516-34.31 68.809-40.175 28.659-25.15-3.955-64.605-33.218-48.037zm14.649-98.321h-157.676c-16.172 0-29.297 13.125-29.297 29.297s13.125 29.297 29.297 29.297h157.676c16.172 0 29.297-13.125 29.297-29.297s-13.126-29.297-29.297-29.297zm910.78 58.594h157.676c16.171 0 29.296-13.125 29.296-29.297s-13.125-29.297-29.296-29.297h-157.676c-16.113 0-29.297 13.125-29.297 29.297s13.184 29.297 29.297 29.297zm14.649-98.319c205.996-122.201 240.63-121.903 211.567-164.106-26.592-23.377-45.585 4.066-66.684 12.785-31.133 17.979-79.735 46.044-117.794 68.02-37.765 22.101-51.604 29.165-60.307 35.266-28.659 25.146 3.954 64.603 33.218 48.035zm-910.781-50.743c-210.9-118.643-223.696-145.33-247.185-103.39-9.849 36.123 25.544 39.611 42.576 52.904 28.832 16.646 73.356 42.355 110.424 63.76 42.065 23.995 59.967 35.261 69.192 39.511 36.108 12.245 53.974-35.724 24.993-52.785zm440.742-163.887c-31.055 0-65.859 3.925-98.554 11.719 14.297 41.894 49.511 84.083 98.378 125.859 47.168-41.777 74.707-84.14 86.485-126.035-28.887-7.617-55.782-11.543-86.309-11.543zm232.676-241.934h-465.351c-43.984-206.556-333.282-177.895-339.551 29.297 8.25 212.354 298.714 231.064 339.551 29.296h465.351c43.81 206.403 333.273 178.067 339.551-29.297-8.299-212.341-298.654-231.062-339.551-29.296zm-633.867-83.144c151.779 7.59 146.679 219.723 0 224.882-151.785-7.505-146.688-219.732 0-224.882zm690 115.254c11.064 150.863 222.663 141.747 224.799-5.224-10.325-151.954-223.32-141.905-224.799 5.224zm-1178.555-976.23c-12.422 29.062-26.543 57.479-41.953 84.844 71.074 109.335 159.433 199.687 260.332 276.21-43.301-144.257-116.25-264.433-218.379-361.054zm1779.493 0c12.421 29.062 26.542 57.479 41.953 84.844-71.075 109.335-159.433 199.687-260.332 276.21 43.3-144.257 116.249-264.433 218.379-361.054z" fill-rule="evenodd"/></g></g></svg>