<svg id="Layer_1" enable-background="new 0 0 3000 3000" height="512" viewBox="0 0 3000 3000" width="512" xmlns="http://www.w3.org/2000/svg"><g transform="translate(0 -1686)"><g id="Icons"><path clip-rule="evenodd" d="m1956.34 2716.254c35.389-429.204 235.584-703.679 401.863-820.464 179.196-128.235 356.247-12.945 453.52 167.797 121.456 221.67 126.087 548.123 11.832 555.875-141.304 11.376-303.41-203.937-356.4-313.828-23.281-37.684-28.768-82.086-53.723-117.715-24.785-18.377-54.947 7.137-46.543 32.983-138.768 123.867-230.76 285.645-274.061 486.738-2.566 11.953 2.35 24.199 12.434 31.055 10.084 6.855 23.314 6.914 33.451.117 127.6-85.254 239.109-188.203 327.422-316.641 21.504 32.344 44.713 62.754 68.883 90.469-94.201 146.895-264.064 263.497-446.092 314.766 159.715 160.957 271.564 386.132 306.779 641.484 447.22 151.228 392.469 778.555-68.625 854.062 23.08 73.301 52.395 143.32 87.188 208.652h-1841.842c34.793-65.332 64.107-137.461 87.188-210.762-457.226-91.014-490.203-707.236-55.137-851.952 35.174-255.411 146.959-480.528 306.598-641.484-182.027-51.27-351.891-167.871-446.092-314.766 24.17-27.715 47.379-58.125 68.883-90.469 69.71 101.413 154.674 187.736 250.116 261.201 208.347 176.047 94.585-85.763 55.23-182.872-49.839-108.543-118.643-201.488-206.1-279.599 5.633-52.901-56.54-54.757-66.719 9.008-63.981 174.311-229.16 372.263-364.364 389.812-117.151 16.065-111.949-171.74-104.84-253.925 11.308-103.311 35.86-189.197 79.381-279.583 97.321-198.502 282.464-323.023 467.52-188.861 259.026 192.852 374.577 521.921 399.565 818.901 106.764-73.535 227.414-122.051 356.156-138.75-25.986-50.86-35.678-87.012-84.322-120.411 50.285-21.445 94.594-13.008 136.377 8.027 4.096-67.324-3.146-130.898-16.043-192.539 96.322 76.054 159.059 180.41 161.93 304.629 129.227 16.247 251.339 65.189 358.587 139.045zm-456.311 692.344c-44.707.66-162.274 10.176-162.372 44.445 1.096 69.716 61.472 143.49 133.046 203.758-.047.003.034 145.054 0 155.719 1.001 97.827-89.004 180.528-195.228 159.498-106.266-21.848-159.167-139.336-111.835-232.145 14.192-20.42 2.498-47.176-22.179-48.472-46.201-2.14-57.861 117.865-52.83 143.26 25.278 217.536 303.539 271.36 411.368 88.391 111.841 186.256 385.215 124.533 411.126-86.032 7.366-44.75-14.115-150.229-52.589-145.618-28.367 1.962-35.151 31.054-20.909 51.023 33.354 68.3 13.264 146.604-38.723 192.322-137.279 107.88-286.863-14.328-269.605-149.675-.004-45.051-.004-128.235-.004-128.33 75.838-63.984 111.357-130.722 120.205-194.472 1.957-14.121-6.539-27.598-20.127-31.934-45.437-14.473-83.904-21.68-129.344-21.738zm-470.091 411.269c-198.818 118.289-247.436 124.049-208.111 167.159 26.561 17.471 43.186-7.775 71.557-20.649 47.16-27.234 123.525-71.328 153.392-88.574 54.603-24.584 15.739-76.436-16.838-57.936zm910.828 50.743c201.84 113.056 231.131 152.282 248.809 96.67 1.85-31.738-28.325-33.516-53.658-51.651-47.163-27.229-123.527-71.323-153.395-88.569-48.587-34.997-74.069 24.583-41.756 43.55zm-896.18-149.063h-157.652c-16.172 0-29.297 13.125-29.297 29.297s13.125 29.297 29.297 29.297h157.652c16.166 0 29.297-13.125 29.297-29.297s-13.131-29.297-29.297-29.297zm910.828 58.594h157.652c16.172 0 29.297-13.125 29.297-29.297s-13.125-29.297-29.297-29.297h-157.652c-16.166 0-29.297 13.125-29.297 29.297s13.131 29.297 29.297 29.297zm14.649-98.321c198.817-118.288 247.436-124.048 208.111-167.159-26.561-17.471-43.186 7.775-71.557 20.649-47.16 27.234-123.525 71.328-153.392 88.573-54.605 24.586-15.739 76.439 16.838 57.937zm-910.829-50.742c-201.84-113.056-231.132-152.282-248.809-96.671-1.85 31.738 28.326 33.515 53.658 51.65 47.163 27.229 123.527 71.323 153.395 88.569 48.59 34.999 74.068-24.584 41.756-43.548zm440.766-163.887c-31.055 0-65.865 3.926-98.525 11.719 14.291 41.895 49.453 84.082 98.361 125.859 47.145-41.777 74.683-84.14 86.478-126.035-28.916-7.617-55.781-11.543-86.314-11.543zm-507.205-272.754 108.047 56.016c-.063-.003-76.358 39.613-100.732 52.223-8.483 4.635-2.485.745-11.354 6.318-28.846 22.863-.774 62.794 28.838 50.523 3.984-.882 155.091-80.963 160.363-83.039 53.531-45.79-32.293-64.364-101.62-104.743-29.336-15.21-54.024-28.011-56.393-29.24-34.034-16.584-61.471 31.309-27.149 51.942zm987.434-52.031c.026-.008-158.163 82.006-158.203 82.031-47.55 40.433 18.674 60.377 45.127 75.429 76.24 34.603 140.93 94.205 155.506 37.189 1.766-32.533-22.24-31.212-45.276-46.051-32.032-16.604-78.119-40.497-78.225-40.552 4.316-2.402 105.434-54.409 110.13-57.206 32.632-22.572 2.188-66.538-29.059-50.84zm-1369.999-861.27c-12.404 29.063-26.502 57.481-41.93 84.844 71.068 109.335 159.416 199.687 260.332 276.21-43.288-144.257-116.267-264.432-218.402-361.054zm1779.54 0c12.404 29.122 26.508 57.481 41.93 84.844-71.068 109.335-159.416 199.687-260.332 276.21 43.294-144.257 116.267-264.432 218.402-361.054zm-803.139 294.61 11.121 1.465c-3.709-.469-7.412-.996-11.121-1.465z" fill-rule="evenodd"/></g></g></svg>