<svg id="Layer_1" enable-background="new 0 0 3000 3000" height="512" viewBox="0 0 3000 3000" width="512" xmlns="http://www.w3.org/2000/svg"><g transform="translate(-2248 -1124)"><g id="Icons"><path clip-rule="evenodd" d="m4204.328 2154.254c35.44-429.469 235.737-703.786 401.875-820.464 179.188-128.234 356.24-12.934 453.522 167.797 121.442 221.665 126.124 548.116 11.826 555.876-141.284 11.364-303.383-203.893-356.403-313.828-23.291-37.686-28.73-82.088-53.715-117.715-24.784-18.377-54.935 7.145-46.54 32.983-138.75 123.867-230.741 285.645-274.043 486.738-2.578 11.953 2.345 24.199 12.423 31.055 10.078 6.855 23.32 6.914 33.457.117 127.559-85.254 239.122-188.203 327.421-316.641 21.505 32.344 44.708 62.754 68.848 90.468-94.159 146.895-264.022 263.497-446.074 314.766 159.727 160.957 271.583 386.132 306.797 641.484 447.193 151.254 392.457 778.533-68.614 854.063 23.028 73.301 52.384 143.32 87.129 208.652h-1841.835c34.804-65.332 64.16-137.461 87.188-210.762-457.224-91.068-490.158-707.215-55.138-851.953 35.215-255.411 146.954-480.528 306.622-641.484-182.051-51.27-351.915-167.871-446.073-314.766 24.14-27.715 47.343-58.125 68.848-90.468 69.699 101.413 154.695 187.736 250.13 261.201 208.327 176.053 94.563-85.764 55.21-182.872-49.838-108.543-118.638-201.487-206.083-279.599 5.598-52.953-56.544-54.699-66.731 9.008-63.763 174.018-229.07 372.255-364.352 389.812-117.144 16.067-111.974-171.757-104.844-253.925 11.325-103.311 35.869-189.196 79.388-279.583 97.326-198.492 282.478-323.021 467.523-188.861 259.111 192.923 374.54 521.895 399.584 818.901 106.758-73.535 227.401-122.051 356.132-138.75-25.957-50.86-35.683-87.012-84.316-120.41 50.274-21.446 94.57-13.008 136.348 8.027 4.101-67.324-3.106-130.898-15.996-192.539 96.328 76.055 159.023 180.41 161.894 304.629 129.24 16.233 251.349 65.186 358.592 139.043zm-456.269 692.344c-44.684.65-162.275 10.173-162.401 44.445 1.052 69.645 61.544 143.543 133.045 203.758-.047.003.034 145.054 0 155.719 1 97.822-89.005 180.53-195.225 159.498-106.271-21.836-159.124-139.348-111.832-232.145 14.295-20.936 2.299-47.087-22.17-48.472-46.183-2.149-57.853 117.885-52.819 143.26 25.29 217.53 303.486 271.36 411.344 88.391 111.28 185.342 382.91 125.3 410.836-83.681 8.189-45.745-13.754-149.727-50.022-147.942-27.184-.623-38.627 28.272-24.458 48.444 35.398 69.388 14.874 150.15-39.146 196.35-137.828 105.41-285.019-16.985-267.908-151.15-.004-45.051-.004-128.235-.004-128.33 75.82-63.984 111.387-130.722 120.176-194.472 1.993-14.121-6.504-27.598-20.097-31.934-45.413-14.474-83.909-21.681-129.319-21.739zm-470.098 411.269c-198.814 118.29-247.43 124.049-208.106 167.158 26.562 17.472 43.186-7.775 71.556-20.649 47.158-27.234 123.521-71.328 153.388-88.574 54.604-24.585 15.738-76.436-16.838-57.935zm910.781 50.742c210.958 118.681 223.718 145.328 247.142 103.39 9.95-36.088-25.531-39.632-42.533-52.904-28.832-16.645-73.356-42.355-110.424-63.759-42.065-23.995-59.967-35.261-69.192-39.511-36.108-12.247-53.974 35.723-24.993 52.784zm-896.132-149.062h-157.675c-16.172 0-29.297 13.125-29.297 29.297s13.125 29.297 29.297 29.297h157.675c16.113 0 29.297-13.125 29.297-29.297-.001-16.172-13.184-29.297-29.297-29.297zm910.781 58.594h157.675c16.172 0 29.297-13.125 29.297-29.297s-13.125-29.297-29.297-29.297h-157.675c-16.113 0-29.297 13.125-29.297 29.297s13.183 29.297 29.297 29.297zm-896.133-149.063c-201.832-113.054-231.127-152.283-248.804-96.671-1.85 31.737 28.325 33.515 53.658 51.65 47.161 27.229 123.524 71.323 153.391 88.569 48.587 34.999 74.067-24.582 41.755-43.548zm910.781 50.742c208.639-123.609 237.577-121.036 213.109-162.359-26.239-26.635-47.173 2.311-67.097 10.385-28.829 16.65-73.354 42.359-110.422 63.764-41.81 24.437-60.516 34.31-68.809 40.175-28.659 25.149 3.956 64.604 33.219 48.035zm-470.039-214.629c-31.055 0-65.859 3.926-98.555 11.719 14.298 41.895 49.511 84.082 98.379 125.859 47.168-41.777 74.707-84.14 86.485-126.035-28.887-7.617-55.782-11.543-86.309-11.543zm380.098-351.094c-180.88 8.76-175.932 262.283 0 268.711 180.797-8.78 175.851-262.261 0-268.711zm-878.731 78.34 108.048 56.016c-.063-.003-76.359 39.613-100.733 52.223-8.484 4.635-2.483.745-11.355 6.318-28.859 22.857-.801 62.794 28.817 50.523 3.985-.882 155.091-80.963 160.363-83.039 53.567-45.769-32.299-64.368-101.62-104.743-29.336-15.21-54.024-28.011-56.393-29.24-34.043-16.584-61.463 31.316-27.127 51.942zm878.731-19.746c102.899 5.409 98.094 148.332 0 151.524-102.983-5.389-98.174-148.352 0-151.524zm-1269.845-893.555c-12.421 29.063-26.542 57.481-41.953 84.844 71.075 109.335 159.433 199.687 260.332 276.21-43.3-144.257-116.249-264.432-218.379-361.054zm1779.494 0c12.421 29.122 26.542 57.481 41.953 84.844-71.075 109.335-159.433 199.687-260.332 276.21 43.3-144.257 116.249-264.432 218.379-361.054zm-803.145 294.61 11.132 1.465c-3.691-.469-7.383-.996-11.132-1.465z" fill-rule="evenodd"/></g></g></svg>