<svg id="Layer_1" enable-background="new 0 0 3000 3000" height="512" viewBox="0 0 3000 3000" width="512" xmlns="http://www.w3.org/2000/svg"><g transform="translate(0 -1124)"><g id="Icons"><path clip-rule="evenodd" d="m1956.34 2154.254c35.389-429.204 235.584-703.679 401.863-820.464 179.196-128.235 356.247-12.945 453.52 167.797 121.456 221.67 126.087 548.123 11.832 555.876-141.304 11.376-303.41-203.937-356.4-313.828-23.281-37.684-28.768-82.086-53.723-117.715-24.785-18.377-54.947 7.137-46.543 32.983-138.768 123.867-230.76 285.645-274.061 486.738-2.566 11.953 2.35 24.199 12.434 31.055 10.084 6.855 23.314 6.914 33.451.117 127.6-85.254 239.109-188.203 327.422-316.641 21.504 32.344 44.713 62.754 68.883 90.468-94.201 146.895-264.064 263.497-446.092 314.766 159.715 160.957 271.564 386.132 306.779 641.484 447.22 151.228 392.468 778.556-68.625 854.063 23.08 73.301 52.395 143.32 87.188 208.652h-1841.842c34.793-65.332 64.107-137.461 87.188-210.762-457.226-91.016-490.204-707.236-55.137-851.953 35.174-255.411 146.959-480.528 306.598-641.484-182.027-51.27-351.891-167.871-446.092-314.766 24.17-27.715 47.379-58.125 68.883-90.468 69.71 101.413 154.674 187.736 250.116 261.201 208.347 176.047 94.585-85.763 55.23-182.872-49.839-108.543-118.643-201.487-206.1-279.599 5.633-52.901-56.54-54.757-66.719 9.008-63.981 174.311-229.16 372.263-364.364 389.812-117.151 16.065-111.949-171.74-104.84-253.925 11.308-103.311 35.86-189.196 79.381-279.583 97.321-198.502 282.464-323.023 467.52-188.861 259.026 192.852 374.577 521.921 399.565 818.901 106.764-73.535 227.414-122.051 356.156-138.75-25.986-50.86-35.678-87.012-84.322-120.41 50.285-21.446 94.594-13.008 136.377 8.027 4.096-67.324-3.146-130.898-16.043-192.539 96.322 76.055 159.059 180.41 161.93 304.629 129.227 16.245 251.339 65.187 358.587 139.043zm-456.311 692.344c-44.707.66-162.274 10.176-162.372 44.445 1.096 69.716 61.472 143.49 133.046 203.758v100.195c-197.111 43.329-168.748 319.528 29.297 325.489 203.153-7.96 221.677-285.234 29.297-325.489v-100.254c75.838-63.984 111.357-130.722 120.205-194.472 1.957-14.121-6.539-27.598-20.127-31.934-45.439-14.473-83.906-21.68-129.346-21.738zm-.029 404.355c142.357 7.109 137.557 206.071 0 210.937-142.357-7.109-137.557-206.07 0-210.937zm-431.115 6.914c-198.826 118.296-247.422 124.046-208.108 167.158 26.563 17.472 43.189-7.775 71.558-20.649 47.159-27.234 123.521-71.328 153.388-88.574 54.604-24.585 15.738-76.436-16.838-57.935zm832.933 50.742c201.838 113.06 231.128 152.283 248.803 96.671 1.85-31.737-28.325-33.515-53.657-51.65-47.161-27.229-123.524-71.323-153.391-88.569-48.588-34.999-74.066 24.585-41.755 43.548zm-818.285-149.062h-157.652c-16.166 0-29.297 13.125-29.297 29.297s13.131 29.297 29.297 29.297h157.652c16.172 0 29.297-13.125 29.297-29.297s-13.125-29.297-29.297-29.297zm832.934 58.594h157.652c16.166 0 29.297-13.125 29.297-29.297s-13.131-29.297-29.297-29.297h-157.652c-16.172 0-29.297 13.125-29.297 29.297s13.125 29.297 29.297 29.297zm-818.285-149.063c-201.838-113.059-231.129-152.282-248.803-96.671-1.85 31.738 28.325 33.515 53.657 51.65 47.161 27.229 123.524 71.323 153.391 88.569 48.588 35 74.066-24.584 41.755-43.548zm832.933 50.742c198.824-118.295 247.423-124.046 208.108-167.159-26.563-17.472-43.189 7.776-71.558 20.649-47.159 27.234-123.521 71.328-153.388 88.573-54.604 24.587-15.738 76.439 16.838 57.937zm-431.115-214.629c-31.055 0-65.865 3.926-98.525 11.719 14.291 41.895 49.453 84.082 98.361 125.859 47.145-41.777 74.683-84.14 86.478-126.035-28.916-7.617-55.781-11.543-86.314-11.543zm419.104-355.371c-166.253 8.105-161.462 241.059 0 246.914 166.253-8.105 161.46-241.058 0-246.914zm-838.208 0c-166.253 8.105-161.462 241.059 0 246.914 166.254-8.105 161.462-241.058 0-246.914zm838.208 58.594c88.403 4.763 83.65 127.144 0 129.726-88.404-4.762-83.65-127.143 0-129.726zm-838.208 0c88.403 4.763 83.65 127.144 0 129.726-88.403-4.763-83.649-127.143 0-129.726zm-470.666-889.278c-12.404 29.063-26.502 57.481-41.93 84.844 71.068 109.335 159.416 199.687 260.332 276.21-43.288-144.257-116.267-264.432-218.402-361.054zm1779.54 0c12.404 29.122 26.508 57.481 41.93 84.844-71.068 109.335-159.416 199.687-260.332 276.21 43.294-144.257 116.267-264.432 218.402-361.054zm-803.139 294.61 11.121 1.465c-3.709-.469-7.412-.996-11.121-1.465z" fill-rule="evenodd"/></g></g></svg>