<svg id="Layer_1" enable-background="new 0 0 3000 3000" height="512" viewBox="0 0 3000 3000" width="512" xmlns="http://www.w3.org/2000/svg"><g transform="translate(-562 -1686)"><g id="Icons"><path clip-rule="evenodd" d="m2518.34 2716.254c35.388-429.204 235.586-703.681 401.863-820.464 179.191-128.236 356.236-12.94 453.523 167.797 121.443 221.666 126.123 548.116 11.826 555.875-141.284 11.37-303.396-203.919-356.397-313.828-23.281-37.684-28.768-82.087-53.723-117.715-24.785-18.376-54.948 7.137-46.543 32.983-138.767 123.867-230.76 285.645-274.06 486.738-2.567 11.953 2.35 24.199 12.433 31.055 10.084 6.855 23.314 6.914 33.451.117 127.6-85.254 239.109-188.203 327.422-316.641 21.504 32.344 44.713 62.754 68.883 90.469-94.201 146.895-264.064 263.497-446.092 314.766 159.715 160.957 271.564 386.132 306.779 641.484 447.22 151.246 392.483 778.544-68.625 854.062 23.08 73.301 52.394 143.32 87.187 208.652h-1841.841c34.793-65.332 64.108-137.461 87.188-210.762-457.227-91.014-490.203-707.235-55.137-851.952 35.174-255.411 146.959-480.528 306.598-641.484-182.027-51.27-351.891-167.871-446.092-314.766 24.17-27.715 47.379-58.125 68.883-90.469 69.71 101.413 154.674 187.736 250.116 261.201 208.347 176.047 94.585-85.763 55.23-182.872-49.839-108.543-118.643-201.488-206.099-279.599 5.633-52.902-56.54-54.757-66.719 9.008-63.981 174.31-229.16 372.263-364.364 389.812-117.151 16.065-111.949-171.74-104.84-253.925 11.308-103.311 35.86-189.197 79.381-279.583 97.321-198.502 282.463-323.023 467.52-188.861 259.026 192.852 374.577 521.921 399.565 818.901 106.764-73.535 227.414-122.051 356.156-138.75-25.986-50.86-35.678-87.012-84.322-120.411 50.285-21.445 94.594-13.008 136.377 8.027 4.096-67.324-3.146-130.898-16.043-192.539 96.323 76.054 159.059 180.41 161.93 304.629 129.225 16.247 251.337 65.189 358.586 139.045zm-456.311 692.344c-44.707.66-162.274 10.176-162.372 44.445 1.097 69.717 61.472 143.489 133.046 203.758v128.145c-237.012 12.78-392.438 288.69-269.77 251.626 70.966-117.81 152.356-191.796 301.68-194.134 247.417 11.09 277.35 206.84 306.857 198.271 92.561-1.132-30.616-137.51-53.669-157.079-60.647-55.814-139.383-91.925-226.505-98.684v-128.203c75.838-63.984 111.357-130.722 120.205-194.472 1.957-14.121-6.539-27.598-20.127-31.934-45.438-14.474-83.905-21.681-129.345-21.739zm-470.091 411.269c-198.818 118.289-247.436 124.049-208.111 167.159 26.562 17.471 43.186-7.775 71.557-20.649 47.16-27.234 123.525-71.328 153.392-88.574 54.603-24.584 15.74-76.436-16.838-57.936zm910.828 50.743c201.84 113.055 231.131 152.282 248.809 96.67 1.85-31.738-28.326-33.516-53.658-51.651-47.163-27.229-123.527-71.323-153.395-88.569-48.587-34.997-74.069 24.584-41.756 43.55zm-896.18-149.063h-157.652c-16.172 0-29.297 13.125-29.297 29.297s13.125 29.297 29.297 29.297h157.652c16.166 0 29.297-13.125 29.297-29.297s-13.131-29.297-29.297-29.297zm910.828 58.594h157.652c16.172 0 29.297-13.125 29.297-29.297s-13.125-29.297-29.297-29.297h-157.652c-16.166 0-29.297 13.125-29.297 29.297s13.131 29.297 29.297 29.297zm14.649-98.321c198.817-118.288 247.436-124.049 208.111-167.159-26.561-17.471-43.186 7.775-71.557 20.649-47.16 27.234-123.525 71.328-153.392 88.573-54.605 24.586-15.739 76.439 16.838 57.937zm-910.829-50.742c-201.839-113.055-231.132-152.282-248.809-96.671-1.85 31.738 28.326 33.515 53.659 51.65 47.163 27.229 123.527 71.323 153.395 88.569 48.589 34.999 74.067-24.584 41.755-43.548zm440.766-163.887c-31.055 0-65.865 3.926-98.525 11.719 14.291 41.895 49.453 84.082 98.361 125.859 47.145-41.777 74.684-84.14 86.479-126.035-28.917-7.617-55.782-11.543-86.315-11.543zm-414.41-166.171c7.278 2.211 153.748 83.672 158.17 78.346 31.463-.418 38.649-39.829 15.608-54.127-3.455-2.755-107.098-55.137-110.133-57.208l108.047-56.016c14.35-7.441 19.963-25.136 12.522-39.492-7.442-14.355-25.143-19.98-39.498-12.539l-144.715 75.058c-7.275-2.21-153.753-83.673-158.168-78.346-31.461.42-38.652 39.827-15.609 54.127 3.455 2.755 107.098 55.137 110.133 57.208l-108.047 56.016c-14.349 7.441-19.963 25.136-12.521 39.492 7.447 14.355 25.142 19.98 39.498 12.539zm828.82 0c7.275 2.21 153.754 83.673 158.168 78.346 31.461-.42 38.652-39.827 15.609-54.127-3.455-2.755-107.098-55.137-110.133-57.208l108.047-56.016c14.35-7.441 19.963-25.136 12.521-39.492-7.447-14.355-25.142-19.98-39.498-12.539l-144.715 75.058c-7.278-2.211-153.748-83.672-158.169-78.346-31.463.418-38.649 39.829-15.608 54.127 3.455 2.755 107.098 55.137 110.133 57.208l-108.047 56.016c-14.35 7.441-19.963 25.136-12.521 39.492 7.441 14.355 25.143 19.98 39.498 12.539zm-1304.18-1019.884c-12.404 29.063-26.502 57.481-41.93 84.844 71.068 109.335 159.416 199.687 260.332 276.21-43.288-144.257-116.267-264.432-218.402-361.054zm1779.54 0c12.404 29.122 26.508 57.481 41.93 84.844-71.068 109.335-159.416 199.687-260.332 276.21 43.294-144.257 116.267-264.432 218.402-361.054zm-803.139 294.61 11.121 1.465c-3.709-.469-7.412-.996-11.121-1.465z" fill-rule="evenodd"/></g></g></svg>