<svg id="Layer_1" enable-background="new 0 0 3000 3000" height="512" viewBox="0 0 3000 3000" width="512" xmlns="http://www.w3.org/2000/svg"><g transform="translate(-1124 -1124)"><g id="Icons"><path clip-rule="evenodd" d="m3080.328 2154.254c35.436-429.468 235.741-703.79 401.876-820.464 179.188-128.235 356.239-12.934 453.522 167.797 121.443 221.666 126.123 548.116 11.826 555.876-141.282 11.365-303.383-203.893-356.403-313.828-23.291-37.686-28.73-82.088-53.715-117.715-24.784-18.376-54.935 7.145-46.539 32.983-138.75 123.867-230.742 285.645-274.042 486.738-2.578 11.953 2.343 24.199 12.422 31.055 10.078 6.855 23.32 6.914 33.457.117 127.559-85.254 239.121-188.203 327.422-316.641 21.504 32.344 44.707 62.754 68.848 90.468-94.16 146.895-264.024 263.497-446.074 314.766 159.727 160.957 271.582 386.132 306.797 641.484 447.201 151.261 392.469 778.557-68.672 854.063 23.085 73.301 52.441 143.32 87.246 208.652h-1841.897c34.805-65.332 64.102-137.461 87.188-210.762-457.224-91.069-490.156-707.215-55.136-851.953 35.215-255.411 147.011-480.528 306.621-641.484-182.051-51.27-351.914-167.871-446.074-314.766 24.141-27.715 47.344-58.125 68.848-90.468 69.701 101.413 154.696 187.736 250.13 261.201 208.327 176.053 94.562-85.764 55.21-182.872-49.837-108.543-118.638-201.487-206.083-279.599 5.599-52.949-56.543-54.702-66.732 9.008-64.19 174.9-229.527 372.357-364.351 389.812-117.144 16.067-111.974-171.757-104.845-253.925 11.325-103.311 35.869-189.196 79.388-279.583 97.326-198.492 282.478-323.021 467.523-188.861 259.109 192.922 374.544 521.896 399.584 818.901 106.758-73.535 227.403-122.051 356.133-138.75-25.958-50.86-35.684-87.012-84.317-120.41 50.273-21.446 94.571-13.008 136.406 8.027 4.043-67.324-3.164-130.898-16.055-192.539 96.328 76.055 159.023 180.41 161.895 304.629 129.241 16.234 251.351 65.186 358.593 139.043zm-485.625 940.547c-.047.003.034 145.054 0 155.719 1 97.822-89.006 180.53-195.226 159.498-106.271-21.836-159.126-139.348-111.832-232.145 14.175-20.418 2.525-47.173-22.196-48.472-46.139-2.145-57.834 117.88-52.794 143.26 25.29 217.529 303.487 271.36 411.344 88.391 111.284 185.345 382.948 125.303 410.838-83.681 8.187-45.744-13.754-149.725-50.024-147.942-27.139-.638-38.617 28.291-24.458 48.444 35.399 69.388 14.874 150.151-39.146 196.35-137.828 105.41-285.019-16.985-267.909-151.15-.004-45.051-.004-128.235-.004-128.33 63.375-53.43 99.437-110.03 114.022-164.188 3.643-16.9 15.306-44.922-7.597-59.328-50.63-19.677-99.27-25.483-150.049-24.377-46.645 2.224-142.494 12.911-146.867 39.828-8.001 65.049 65.131 153.301 131.898 208.123zm470.039 213.808c208.38 117.028 226.021 147.548 247.919 101.175 6.873-34.806-26.202-37.359-44.39-51.342-31.144-17.975-79.76-46.04-117.83-68.016-38.029-21.659-51.072-30.114-60.706-34.602-36.107-12.246-53.974 35.725-24.993 52.785zm-910.781-50.742c-208.344 123.437-237.673 121.096-213.138 162.359 26.367 26.617 47.121-2.28 67.125-10.385 28.829-16.65 73.353-42.359 110.422-63.764 41.81-24.437 60.516-34.31 68.809-40.175 28.659-25.147-3.955-64.604-33.218-48.035zm14.649-98.32h-157.676c-16.172 0-29.297 13.125-29.297 29.297s13.125 29.297 29.297 29.297h157.676c16.172 0 29.297-13.125 29.297-29.297-.001-16.172-13.126-29.297-29.297-29.297zm910.78 58.594h157.676c16.172 0 29.297-13.125 29.297-29.297s-13.125-29.297-29.297-29.297h-157.676c-16.172 0-29.297 13.125-29.297 29.297.001 16.172 13.126 29.297 29.297 29.297zm-896.132-149.063c-210.899-118.643-223.696-145.33-247.185-103.39-9.848 36.125 25.544 39.612 42.576 52.905 28.832 16.646 73.356 42.355 110.424 63.759 42.065 23.995 59.967 35.261 69.192 39.511 36.108 12.247 53.974-35.725 24.993-52.785zm910.781 50.742c202.265-120.137 244.087-122.933 209.915-165.707-26.804-20.594-45.079 6.522-73.317 19.198-43.864 25.324-112.968 65.215-146.492 84.567-67.784 30.124-19.288 80.226 9.894 61.942zm-470.039-214.629c-31.055 0-65.859 3.926-98.554 11.719 14.297 41.895 49.511 84.082 98.378 125.859 47.168-41.777 74.707-84.14 86.485-126.035-28.887-7.617-55.782-11.543-86.309-11.543zm406.055-343.066c-158.533 7.794-153.611 229.677 0 235.195 158.535-7.831 153.608-229.713 0-235.195zm-812.11 0c-158.532 7.794-153.61 229.677 0 235.195 158.536-7.83 153.609-229.713 0-235.195zm812.11 58.594c80.612 4.418 75.864 115.76 0 118.008-80.613-4.418-75.864-115.761 0-118.008zm-812.11 0c80.613 4.417 75.865 115.76 0 118.008-80.612-4.419-75.863-115.761 0-118.008zm-141.269-61.172c107.609-25.699 252.518-157.525 160.893-173.436-21.598-.39-29.207 23.347-43.331 36.56-18.186 19.937-38.285 35.957-61.333 49.682-27.732 19.296-77.865 29.086-86.173 39.456-20.675 23.494 3.621 55.454 29.944 47.738zm1110.996-56.25c-59.908-17.417-110.358-49.01-147.351-96.546-21.875-38.479-66.84-17.254-58.055 17.377 9.828 21.013 28 37.457 43.273 53.534 30.271 29.079 65.23 51.228 105.25 67.75 92.195 45.692 90.221-34.233 56.883-42.115zm-1453.418-784.161c-12.422 29.063-26.543 57.481-41.953 84.844 71.074 109.335 159.433 199.687 260.332 276.21-43.301-144.257-116.25-264.432-218.379-361.054zm1779.492 0c12.422 29.122 26.543 57.481 41.953 84.844-71.074 109.335-159.433 199.687-260.332 276.21 43.301-144.257 116.25-264.432 218.379-361.054zm-803.086 294.61 11.074 1.465c-3.691-.469-7.382-.996-11.074-1.465z" fill-rule="evenodd"/></g></g></svg>